<svg id="Layer_1" data-name="Layer 1" xmlns="http://www.w3.org/2000/svg" viewBox="0 0 120 100"><defs><style>.cls-1{fill:#fc0;}</style></defs><title>Amity M Assects</title><polygon class="cls-1" points="117.21 96.79 2.79 96.79 2.79 21.25 42.83 21.25 42.83 22.25 3.79 22.25 3.79 95.79 116.21 95.79 116.21 22.25 77.18 22.25 77.18 21.25 117.21 21.25 117.21 96.79"/><path class="cls-1" d="M75.07,11c-.25-.35-.52-.7-.79-1a18.45,18.45,0,0,0-28.56,0c-.27.33-.54.68-.79,1a18.42,18.42,0,0,0,0,21.41c.25.36.51.7.79,1a18.45,18.45,0,0,0,28.48,0c.28-.33.54-.67.79-1a18.42,18.42,0,0,0,0-21.41Zm-1.85-.28c-.29.19-.6.38-.93.56a20.08,20.08,0,0,1-3.15,1.37A21.34,21.34,0,0,0,67.5,8.77a13.22,13.22,0,0,0-2.77-3.59A17.19,17.19,0,0,1,73.22,10.73Zm-3.7,5.64a1.17,1.17,0,0,1,.52.12,1.25,1.25,0,0,1,.27,2.11,1.24,1.24,0,0,1-.79.29,1.39,1.39,0,0,1-.5-.1,1.28,1.28,0,0,1-.76-1.16,1.25,1.25,0,0,1,.49-1A1.22,1.22,0,0,1,69.52,16.37ZM60.65,4.56c2.13.28,4.14,2,5.71,4.84A20,20,0,0,1,67.9,13a28.9,28.9,0,0,1-7.25,1Zm0,10.81a30.39,30.39,0,0,0,7.61-1.08c.08.33.16.66.23,1a2.55,2.55,0,0,0,.63,4.86l0,.93H62.48a2.56,2.56,0,0,0-1.83-1.86Zm7.59,13.8a30.69,30.69,0,0,0-7.59-1.08V24.16a2.56,2.56,0,0,0,1.81-1.78h6.69A29.37,29.37,0,0,1,68.24,29.17Zm.26,4.71a1.26,1.26,0,0,1-1.25,1.26h0a1.25,1.25,0,0,1-1.09-.71,1.22,1.22,0,0,1-.12-.54,1.26,1.26,0,0,1,1-1.24l.22,0a1.25,1.25,0,0,1,1,.49A1.3,1.3,0,0,1,68.5,33.88ZM59.35,4.56v9.51a28.9,28.9,0,0,1-7.25-1c.1-.31.2-.62.31-.92h.16a2.56,2.56,0,0,0,2.56-2.56A2.5,2.5,0,0,0,54.54,8,7.33,7.33,0,0,1,59.35,4.56Zm-7.61,9.73a30.39,30.39,0,0,0,7.61,1.08v3.85a2.56,2.56,0,0,0-1.83,1.86H50.85A30,30,0,0,1,51.74,14.29Zm-.43-4.72a1.27,1.27,0,0,1,1.26-1.26l.18,0a1.27,1.27,0,0,1,1,.84,1.34,1.34,0,0,1,.07.4,1.27,1.27,0,0,1-.87,1.2,1.23,1.23,0,0,1-.39.06,1.26,1.26,0,0,1-1.26-1.26Zm4-4.39a11.34,11.34,0,0,0-1.78,2A2.59,2.59,0,0,0,52.57,7a2.55,2.55,0,0,0-1.39,4.69c-.11.31-.22.63-.32.95a20.08,20.08,0,0,1-3.15-1.37c-.33-.18-.64-.37-.93-.56A17.19,17.19,0,0,1,55.27,5.18ZM46,11.77c.34.22.71.44,1.09.65a21.65,21.65,0,0,0,3.42,1.49,31.11,31.11,0,0,0-1,7.17H42.83A17,17,0,0,1,46,11.77Zm5,13a1.27,1.27,0,0,1,.57,1.05,1.32,1.32,0,0,1-.32.84,1.29,1.29,0,0,1-.94.42h0A1.65,1.65,0,0,1,50,27,1.26,1.26,0,0,1,49,25.82a1.27,1.27,0,0,1,.64-1.1,1.33,1.33,0,0,1,.62-.16A1.25,1.25,0,0,1,51,24.77Zm-8.16-2.39h6.72c0,.33,0,.66,0,1a2.55,2.55,0,0,0,.65,5c.09.4.18.79.28,1.18A20.62,20.62,0,0,0,47.08,31q-.55.3-1,.63A17,17,0,0,1,42.83,22.38Zm4,10.32c.28-.18.58-.35.89-.52a18.6,18.6,0,0,1,3.17-1.38,21.5,21.5,0,0,0,1.62,3.81,13.44,13.44,0,0,0,2.77,3.6A17.27,17.27,0,0,1,46.82,32.7Zm12.53,6.13c-2.13-.29-4.14-2-5.71-4.85a20.28,20.28,0,0,1-1.52-3.57,29.2,29.2,0,0,1,7.23-1Zm0-10.74a30.69,30.69,0,0,0-7.59,1.08c-.09-.36-.18-.73-.26-1.1a2.56,2.56,0,0,0-.61-4.74c0-.31,0-.63,0-.95h6.69a2.56,2.56,0,0,0,1.81,1.78Zm0-5.32a1.29,1.29,0,0,1-.61-1.08,1.26,1.26,0,0,1,.16-.61,1.24,1.24,0,0,1,.45-.46,1.21,1.21,0,0,1,1.3,0,1.24,1.24,0,0,1,.45.46,1.24,1.24,0,0,1-.05,1.3,1.24,1.24,0,0,1-.4.39,1.26,1.26,0,0,1-1.3,0Zm1.3,16.06V29.39a29.2,29.2,0,0,1,7.23,1c-.1.32-.21.63-.32.93l-.31,0a2.56,2.56,0,0,0-2.56,2.56,2.53,2.53,0,0,0,.66,1.71A7.28,7.28,0,0,1,60.65,38.83Zm4.08-.62a11.79,11.79,0,0,0,1.7-1.91,2.47,2.47,0,0,0,.82.13,2.55,2.55,0,0,0,1.51-4.61c.13-.33.24-.68.36-1a18.6,18.6,0,0,1,3.17,1.38c.31.17.61.34.89.52A17.27,17.27,0,0,1,64.73,38.21ZM74,31.67q-.5-.33-1-.63a20.62,20.62,0,0,0-3.44-1.49,31.58,31.58,0,0,0,1-7.17h6.72c0-.23,0-.46,0-.69h0c0,.23,0,.46,0,.69h0A17,17,0,0,1,74,31.67Zm3.2-10.59H70.45c0-.35,0-.71,0-1.06a2.55,2.55,0,0,0-.63-4.93c-.09-.4-.18-.8-.28-1.18a21.26,21.26,0,0,0,3.42-1.49c.38-.21.75-.43,1.09-.65a17,17,0,0,1,3.16,9.31h0Z"/></svg>