<svg id="Layer_1" data-name="Layer 1" xmlns="http://www.w3.org/2000/svg" viewBox="0 0 1081.7 226.53"><defs><style>.cls-1{fill:#231f20;}.cls-2{fill:#006690;}.cls-3{fill:#ccc;}</style></defs><title>Amity M Assects</title><path class="cls-1" d="M6.28,203.3H2.16v3.37H7v1h-6v-9.51h6v1H2.16v3.06H6.28Z"/><path class="cls-1" d="M7.91,204.1a4.12,4.12,0,0,1,.77-2.62,2.42,2.42,0,0,1,2-1,2.47,2.47,0,0,1,2,.85v-3.68h1.21v10H12.76l-.06-.76a2.44,2.44,0,0,1-2,.89,2.41,2.41,0,0,1-2-1,4.17,4.17,0,0,1-.77-2.63Zm1.2.14a3.13,3.13,0,0,0,.5,1.88,1.61,1.61,0,0,0,1.37.68,1.77,1.77,0,0,0,1.68-1v-3.25a1.77,1.77,0,0,0-1.67-1,1.6,1.6,0,0,0-1.38.69A3.43,3.43,0,0,0,9.11,204.24Z"/><path class="cls-1" d="M20.11,207a2.54,2.54,0,0,1-2.07.83,2.24,2.24,0,0,1-1.73-.65,2.86,2.86,0,0,1-.59-1.95v-4.59h1.21v4.56c0,1.07.43,1.61,1.3,1.61a1.81,1.81,0,0,0,1.84-1v-5.14h1.21v7.06H20.13Z"/><path class="cls-1" d="M26,206.84a1.7,1.7,0,0,0,1.13-.4,1.36,1.36,0,0,0,.54-1h1.14a2.16,2.16,0,0,1-.42,1.16,2.73,2.73,0,0,1-1,.88,3.1,3.1,0,0,1-1.37.32,2.91,2.91,0,0,1-2.29-1,3.83,3.83,0,0,1-.86-2.64V204a4.24,4.24,0,0,1,.38-1.83,2.9,2.9,0,0,1,1.09-1.25,3.06,3.06,0,0,1,1.68-.45,2.8,2.8,0,0,1,2,.72,2.49,2.49,0,0,1,.84,1.84H27.62a1.69,1.69,0,0,0-.52-1.12,1.59,1.59,0,0,0-1.15-.44,1.7,1.7,0,0,0-1.43.66,3.09,3.09,0,0,0-.51,1.92v.23a3,3,0,0,0,.51,1.88A1.68,1.68,0,0,0,26,206.84Z"/><path class="cls-1" d="M34.48,207.69a2.79,2.79,0,0,1-.17-.74,2.7,2.7,0,0,1-2,.87,2.45,2.45,0,0,1-1.71-.59,1.89,1.89,0,0,1-.67-1.5,2,2,0,0,1,.84-1.71,3.92,3.92,0,0,1,2.36-.61h1.17v-.56a1.37,1.37,0,0,0-.37-1,1.55,1.55,0,0,0-1.12-.37,1.85,1.85,0,0,0-1.09.32,1,1,0,0,0-.43.79H30.06a1.68,1.68,0,0,1,.38-1,2.53,2.53,0,0,1,1-.78,3.45,3.45,0,0,1,1.41-.29,2.81,2.81,0,0,1,1.91.61,2.16,2.16,0,0,1,.72,1.69V206a4.07,4.07,0,0,0,.25,1.55v.1Zm-2-.92a2.19,2.19,0,0,0,1.08-.29,1.74,1.74,0,0,0,.73-.77v-1.45h-.94c-1.48,0-2.22.44-2.22,1.3a1.08,1.08,0,0,0,.38.89A1.4,1.4,0,0,0,32.48,206.77Z"/><path class="cls-1" d="M39,198.91v1.72h1.32v.93H39V206a1,1,0,0,0,.17.63.72.72,0,0,0,.6.22,3.13,3.13,0,0,0,.58-.08v1a3.42,3.42,0,0,1-.93.13,1.49,1.49,0,0,1-1.22-.49,2.11,2.11,0,0,1-.41-1.39v-4.38H36.54v-.93h1.29v-1.72Z"/><path class="cls-1" d="M41.77,198.75a.73.73,0,0,1,.18-.5.7.7,0,0,1,.54-.2.69.69,0,0,1,.53.2.73.73,0,0,1,.18.5.65.65,0,0,1-.71.69.7.7,0,0,1-.54-.2A.69.69,0,0,1,41.77,198.75Zm1.31,8.94H41.87v-7.06h1.21Z"/><path class="cls-1" d="M44.69,204.09a4.24,4.24,0,0,1,.41-1.87,3,3,0,0,1,2.8-1.73,3,3,0,0,1,2.34,1,3.89,3.89,0,0,1,.89,2.66v.09a4.15,4.15,0,0,1-.4,1.85,3,3,0,0,1-1.13,1.28,3.16,3.16,0,0,1-1.69.45,3,3,0,0,1-2.32-1,3.77,3.77,0,0,1-.9-2.64Zm1.22.15a3.07,3.07,0,0,0,.54,1.89,1.76,1.76,0,0,0,1.46.71,1.74,1.74,0,0,0,1.47-.72,3.35,3.35,0,0,0,.54-2,3,3,0,0,0-.55-1.88,1.76,1.76,0,0,0-1.47-.72,1.7,1.7,0,0,0-1.44.71A3.24,3.24,0,0,0,45.91,204.24Z"/><path class="cls-1" d="M53.79,200.63l0,.88a2.56,2.56,0,0,1,2.11-1c1.5,0,2.25.85,2.26,2.53v4.67H57V203a1.59,1.59,0,0,0-.35-1.13,1.35,1.35,0,0,0-1.06-.37,1.75,1.75,0,0,0-1,.31,2.25,2.25,0,0,0-.69.83v5H52.64v-7.06Z"/><path class="cls-1" d="M24,9.65H17.49V8.36l3.08-3.28a8.06,8.06,0,0,0,.93-1.21,1.9,1.9,0,0,0,.31-1,1.46,1.46,0,0,0-.32-1,1.16,1.16,0,0,0-.92-.36,1.27,1.27,0,0,0-1,.44,1.77,1.77,0,0,0-.36,1.16H17.3a3.1,3.1,0,0,1,.42-1.59A2.81,2.81,0,0,1,18.89.42,3.47,3.47,0,0,1,20.61,0a3.36,3.36,0,0,1,2.28.7,2.51,2.51,0,0,1,.81,2,3.25,3.25,0,0,1-.36,1.43,8,8,0,0,1-1.26,1.71L19.92,8.13H24Z"/><path class="cls-1" d="M29.75,9.65H27.86V2.37l-2.25.7V1.54L29.55.13h.2Z"/><path class="cls-1" d="M32.82,2A1.85,1.85,0,0,1,33.38.55,2,2,0,0,1,34.87,0a2.1,2.1,0,0,1,1.51.54A1.94,1.94,0,0,1,36.94,2v.47a1.89,1.89,0,0,1-.56,1.42,2.12,2.12,0,0,1-1.49.53,2.09,2.09,0,0,1-1.5-.54,1.9,1.9,0,0,1-.57-1.45Zm1.25.5a.88.88,0,0,0,.22.63.8.8,0,0,0,.6.24.75.75,0,0,0,.58-.24,1,1,0,0,0,.21-.65V2a1,1,0,0,0-.21-.64.77.77,0,0,0-.6-.24.75.75,0,0,0-.58.24.92.92,0,0,0-.22.66Zm1.19,6.47-.92-.5L39,1l.92.49Zm2.1-1.62a1.82,1.82,0,0,1,.58-1.42,2.08,2.08,0,0,1,1.49-.54,2.12,2.12,0,0,1,1.5.53,1.9,1.9,0,0,1,.57,1.47v.47a1.85,1.85,0,0,1-.57,1.41,2.05,2.05,0,0,1-1.49.54,2.1,2.1,0,0,1-1.51-.54,1.89,1.89,0,0,1-.57-1.44Zm1.26.51a.84.84,0,0,0,.23.61.76.76,0,0,0,.59.25c.53,0,.8-.29.8-.88V7.32A.85.85,0,0,0,40,6.69a.74.74,0,0,0-.58-.24.76.76,0,0,0-.59.24.88.88,0,0,0-.22.65Z"/><path class="cls-2" d="M32.63,16.24c-1.44,1.44-2.81.66-4.25,2.1.76,0,1.68-.29,2.44-.29-1.44-1.44-3.1-.37-4.54-1.81A1.62,1.62,0,0,0,24,18.53l4.32,4.32a1.64,1.64,0,0,0,2.29,0l4.33-4.32A1.62,1.62,0,0,0,32.63,16.24Z"/><rect class="cls-3" x="16.52" y="32.74" width="25.88" height="154.53"/><rect class="cls-2" x="16.52" y="157.58" width="25.88" height="29.69"/><path class="cls-2" d="M1.29,17.9H57.62a1.34,1.34,0,0,0,0-2.68H1.29a1.34,1.34,0,0,0,0,2.68Z"/><path class="cls-1" d="M207,198.18l3.11,7.76,3.11-7.76h1.62v9.51h-1.25V204l.12-4-3.13,7.7h-1L206.47,200l.12,4v3.7h-1.25v-9.51Z"/><path class="cls-1" d="M219.76,207.82a3.08,3.08,0,0,1-2.34-.94,3.51,3.51,0,0,1-.9-2.53v-.22a4.39,4.39,0,0,1,.4-1.88,3.16,3.16,0,0,1,1.13-1.29,2.83,2.83,0,0,1,1.56-.47,2.66,2.66,0,0,1,2.14.91,3.93,3.93,0,0,1,.77,2.6v.5h-4.79a2.52,2.52,0,0,0,.61,1.69,1.93,1.93,0,0,0,1.49.65,2.16,2.16,0,0,0,1.08-.26,2.73,2.73,0,0,0,.78-.7l.74.58A3,3,0,0,1,219.76,207.82Zm-.15-6.33a1.59,1.59,0,0,0-1.23.53,2.58,2.58,0,0,0-.61,1.49h3.54v-.09a2.33,2.33,0,0,0-.5-1.43A1.52,1.52,0,0,0,219.61,201.49Z"/><path class="cls-1" d="M223.62,204.1a4.18,4.18,0,0,1,.77-2.62,2.45,2.45,0,0,1,2-1,2.48,2.48,0,0,1,2,.85v-3.68h1.21v10h-1.11l-.06-.76a2.45,2.45,0,0,1-2,.89,2.4,2.4,0,0,1-2-1,4.18,4.18,0,0,1-.78-2.63Zm1.21.14a3.13,3.13,0,0,0,.5,1.88,1.6,1.6,0,0,0,1.37.68,1.79,1.79,0,0,0,1.68-1v-3.25a1.77,1.77,0,0,0-1.67-1,1.6,1.6,0,0,0-1.38.69A3.43,3.43,0,0,0,224.83,204.24Z"/><path class="cls-1" d="M231.47,198.75a.73.73,0,0,1,.18-.5.68.68,0,0,1,.53-.2.67.67,0,0,1,.72.7.66.66,0,0,1-.19.49.69.69,0,0,1-.53.2.68.68,0,0,1-.53-.2A.69.69,0,0,1,231.47,198.75Zm1.3,8.94h-1.21v-7.06h1.21Z"/><path class="cls-1" d="M239.07,207.69a2.44,2.44,0,0,1-.17-.74,2.7,2.7,0,0,1-2,.87,2.48,2.48,0,0,1-1.72-.59,1.92,1.92,0,0,1-.67-1.5,2,2,0,0,1,.84-1.71,3.94,3.94,0,0,1,2.36-.61h1.18v-.56a1.37,1.37,0,0,0-.38-1,1.5,1.5,0,0,0-1.11-.37,1.81,1.81,0,0,0-1.09.32,1,1,0,0,0-.44.79h-1.21a1.66,1.66,0,0,1,.37-1,2.53,2.53,0,0,1,1-.78,3.47,3.47,0,0,1,1.42-.29,2.82,2.82,0,0,1,1.91.61,2.23,2.23,0,0,1,.72,1.69V206a3.89,3.89,0,0,0,.25,1.55v.1Zm-2-.92a2.19,2.19,0,0,0,1.08-.29,1.77,1.77,0,0,0,.74-.77v-1.45h-.95c-1.48,0-2.22.44-2.22,1.3a1.11,1.11,0,0,0,.38.89A1.42,1.42,0,0,0,237.06,206.77Z"/><path class="cls-1" d="M249.66,207.69a2.44,2.44,0,0,1-.17-.74,2.7,2.7,0,0,1-2,.87,2.48,2.48,0,0,1-1.72-.59,1.92,1.92,0,0,1-.67-1.5,2,2,0,0,1,.84-1.71,3.94,3.94,0,0,1,2.36-.61h1.18v-.56a1.37,1.37,0,0,0-.38-1,1.51,1.51,0,0,0-1.12-.37,1.8,1.8,0,0,0-1.08.32,1,1,0,0,0-.44.79h-1.21a1.66,1.66,0,0,1,.37-1,2.53,2.53,0,0,1,1-.78,3.47,3.47,0,0,1,1.42-.29,2.82,2.82,0,0,1,1.91.61,2.23,2.23,0,0,1,.72,1.69V206a3.89,3.89,0,0,0,.25,1.55v.1Zm-2-.92a2.19,2.19,0,0,0,1.08-.29,1.77,1.77,0,0,0,.74-.77v-1.45h-.95c-1.48,0-2.22.44-2.22,1.3a1.11,1.11,0,0,0,.38.89A1.42,1.42,0,0,0,247.65,206.77Z"/><path class="cls-1" d="M253.72,200.63l0,.88a2.58,2.58,0,0,1,2.12-1c1.49,0,2.25.85,2.26,2.53v4.67h-1.21V203a1.59,1.59,0,0,0-.35-1.13,1.37,1.37,0,0,0-1.06-.37,1.75,1.75,0,0,0-1,.31,2.25,2.25,0,0,0-.69.83v5h-1.21v-7.06Z"/><path class="cls-1" d="M259.66,204.1a4.18,4.18,0,0,1,.77-2.62,2.44,2.44,0,0,1,2-1,2.48,2.48,0,0,1,2,.85v-3.68h1.2v10h-1.11l-.06-.76a2.61,2.61,0,0,1-4-.11,4.23,4.23,0,0,1-.77-2.63Zm1.21.14a3.13,3.13,0,0,0,.49,1.88,1.63,1.63,0,0,0,1.38.68,1.79,1.79,0,0,0,1.68-1v-3.25a1.78,1.78,0,0,0-1.67-1,1.63,1.63,0,0,0-1.39.69A3.43,3.43,0,0,0,260.87,204.24Z"/><path class="cls-1" d="M196.16,220.73a3.55,3.55,0,0,1-1.11,2.33,3.71,3.71,0,0,1-2.5.82,3.38,3.38,0,0,1-2.7-1.21,4.91,4.91,0,0,1-1-3.24v-.91a5.51,5.51,0,0,1,.47-2.33,3.58,3.58,0,0,1,1.34-1.55,3.74,3.74,0,0,1,2-.54,3.46,3.46,0,0,1,2.43.85,3.52,3.52,0,0,1,1.06,2.34H194.9a2.76,2.76,0,0,0-.71-1.65,2.13,2.13,0,0,0-1.52-.51,2.26,2.26,0,0,0-1.89.89,4.12,4.12,0,0,0-.68,2.53v.92a4.23,4.23,0,0,0,.64,2.47,2.1,2.1,0,0,0,1.81.91,2.45,2.45,0,0,0,1.61-.47,2.65,2.65,0,0,0,.74-1.65Z"/><path class="cls-1" d="M197.36,220.15a4.18,4.18,0,0,1,.41-1.87,3,3,0,0,1,1.14-1.28,3.08,3.08,0,0,1,1.66-.45,3,3,0,0,1,2.34,1,3.85,3.85,0,0,1,.89,2.66v.08a4.23,4.23,0,0,1-.4,1.85,3,3,0,0,1-1.13,1.28,3.17,3.17,0,0,1-1.69.46,3,3,0,0,1-2.33-1,3.86,3.86,0,0,1-.89-2.65Zm1.22.14a3.07,3.07,0,0,0,.54,1.89,1.86,1.86,0,0,0,2.93,0,3.32,3.32,0,0,0,.54-2,3.07,3.07,0,0,0-.55-1.89,1.76,1.76,0,0,0-1.47-.72,1.73,1.73,0,0,0-1.44.71A3.28,3.28,0,0,0,198.58,220.29Z"/><path class="cls-1" d="M206.45,216.68l0,.78a2.61,2.61,0,0,1,2.1-.91,2,2,0,0,1,2,1.13,2.66,2.66,0,0,1,.91-.82,2.73,2.73,0,0,1,1.34-.31c1.55,0,2.34.82,2.36,2.46v4.74H214v-4.67a1.63,1.63,0,0,0-.35-1.13,1.53,1.53,0,0,0-1.16-.38,1.57,1.57,0,0,0-1.64,1.49v4.69h-1.21v-4.63a1.35,1.35,0,0,0-1.51-1.55,1.63,1.63,0,0,0-1.63,1v5.16h-1.2v-7.07Z"/><path class="cls-1" d="M218.17,216.68l0,.78a2.58,2.58,0,0,1,2.09-.91,2,2,0,0,1,2,1.13,2.63,2.63,0,0,1,2.25-1.13c1.56,0,2.34.82,2.37,2.46v4.74h-1.21v-4.67a1.62,1.62,0,0,0-.34-1.13,1.55,1.55,0,0,0-1.17-.38,1.61,1.61,0,0,0-1.11.4,1.64,1.64,0,0,0-.52,1.09v4.69h-1.22v-4.63a1.35,1.35,0,0,0-1.5-1.55,1.61,1.61,0,0,0-1.63,1v5.16H217v-7.07Z"/><path class="cls-1" d="M233.13,223.05a2.6,2.6,0,0,1-2.08.83,2.2,2.2,0,0,1-1.72-.66,2.85,2.85,0,0,1-.59-1.94v-4.6h1.2v4.56c0,1.08.44,1.61,1.31,1.61a1.8,1.8,0,0,0,1.84-1v-5.14h1.21v7.07h-1.15Z"/><path class="cls-1" d="M237.28,216.68l0,.89a2.57,2.57,0,0,1,2.12-1c1.49,0,2.24.84,2.26,2.53v4.67h-1.21v-4.68a1.64,1.64,0,0,0-.35-1.13,1.43,1.43,0,0,0-1.07-.37,1.73,1.73,0,0,0-1,.32,2,2,0,0,0-.69.82v5h-1.21v-7.07Z"/><path class="cls-1" d="M243.52,214.8a.71.71,0,0,1,.18-.49.67.67,0,0,1,.54-.21.66.66,0,0,1,.53.21.71.71,0,0,1,.19.49.75.75,0,0,1-1.26.49A.69.69,0,0,1,243.52,214.8Zm1.31,8.95h-1.21v-7.07h1.21Z"/><path class="cls-1" d="M249.6,222.89a1.74,1.74,0,0,0,1.13-.39,1.41,1.41,0,0,0,.54-1h1.14a2.13,2.13,0,0,1-.42,1.15,2.77,2.77,0,0,1-1,.88,2.94,2.94,0,0,1-1.36.33,2.91,2.91,0,0,1-2.3-1,3.87,3.87,0,0,1-.85-2.63v-.2a4.32,4.32,0,0,1,.38-1.84,2.89,2.89,0,0,1,1.09-1.25,3.13,3.13,0,0,1,1.67-.44,2.86,2.86,0,0,1,2,.71,2.57,2.57,0,0,1,.84,1.85h-1.14a1.71,1.71,0,0,0-.52-1.13,1.66,1.66,0,0,0-1.16-.44,1.68,1.68,0,0,0-1.42.66,3.11,3.11,0,0,0-.51,1.92v.23a3.09,3.09,0,0,0,.5,1.88A1.71,1.71,0,0,0,249.6,222.89Z"/><path class="cls-1" d="M258.13,223.75A2.44,2.44,0,0,1,258,223a2.71,2.71,0,0,1-2,.88,2.53,2.53,0,0,1-1.72-.59,2,2,0,0,1-.67-1.5,2,2,0,0,1,.84-1.72,4,4,0,0,1,2.37-.61h1.17v-.55a1.32,1.32,0,0,0-.38-1,1.51,1.51,0,0,0-1.11-.38,1.75,1.75,0,0,0-1.09.33,1,1,0,0,0-.44.79h-1.21a1.64,1.64,0,0,1,.37-1,2.64,2.64,0,0,1,1-.79,3.46,3.46,0,0,1,1.42-.28,2.77,2.77,0,0,1,1.91.61,2.23,2.23,0,0,1,.72,1.68v3.25a3.89,3.89,0,0,0,.25,1.55v.11Zm-2-.92a2.09,2.09,0,0,0,1.07-.3,1.8,1.8,0,0,0,.74-.76v-1.45H257c-1.48,0-2.22.43-2.22,1.3a1.09,1.09,0,0,0,.38.88A1.43,1.43,0,0,0,256.13,222.83Z"/><path class="cls-1" d="M262.68,215v1.71H264v.93h-1.32V222a1,1,0,0,0,.18.64.75.75,0,0,0,.6.21,2.52,2.52,0,0,0,.58-.08v1a3.86,3.86,0,0,1-.93.13,1.52,1.52,0,0,1-1.22-.49,2.08,2.08,0,0,1-.41-1.39v-4.39h-1.29v-.93h1.29V215Z"/><path class="cls-1" d="M265.42,214.8a.71.71,0,0,1,.18-.49.66.66,0,0,1,.53-.21.67.67,0,0,1,.54.21.71.71,0,0,1,.18.49.69.69,0,0,1-.18.49.7.7,0,0,1-.54.2.65.65,0,0,1-.71-.69Zm1.31,8.95h-1.21v-7.07h1.21Z"/><path class="cls-1" d="M268.34,220.15a4.18,4.18,0,0,1,.41-1.87,3,3,0,0,1,1.14-1.28,3.08,3.08,0,0,1,1.66-.45,3,3,0,0,1,2.33,1,3.81,3.81,0,0,1,.9,2.66v.08a4.23,4.23,0,0,1-.4,1.85,3,3,0,0,1-1.13,1.28,3.17,3.17,0,0,1-1.69.46,3,3,0,0,1-2.33-1,3.86,3.86,0,0,1-.89-2.65Zm1.22.14a3.07,3.07,0,0,0,.54,1.89,1.75,1.75,0,0,0,1.46.71,1.72,1.72,0,0,0,1.46-.72,3.26,3.26,0,0,0,.55-2,3,3,0,0,0-.56-1.89,1.73,1.73,0,0,0-1.46-.72,1.76,1.76,0,0,0-1.45.71A3.35,3.35,0,0,0,269.56,220.29Z"/><path class="cls-1" d="M277.43,216.68l0,.89a2.58,2.58,0,0,1,2.12-1c1.49,0,2.25.84,2.26,2.53v4.67h-1.21v-4.68a1.59,1.59,0,0,0-.35-1.13,1.41,1.41,0,0,0-1.07-.37,1.75,1.75,0,0,0-1,.32,2,2,0,0,0-.69.82v5h-1.21v-7.07Z"/><path class="cls-1" d="M125.05,9.65h-1.89V2.37l-2.25.7V1.54L124.85.13h.2Z"/><path class="cls-1" d="M130.06,4.06h1a1.4,1.4,0,0,0,1.06-.36,1.33,1.33,0,0,0,.35-1,1.18,1.18,0,0,0-.34-.89,1.36,1.36,0,0,0-.95-.32,1.4,1.4,0,0,0-.91.3.93.93,0,0,0-.36.77H128a2.32,2.32,0,0,1,.4-1.34,2.66,2.66,0,0,1,1.13-.92A3.77,3.77,0,0,1,131.15,0a3.56,3.56,0,0,1,2.36.72,2.46,2.46,0,0,1,.86,2,2.06,2.06,0,0,1-.4,1.2,2.55,2.55,0,0,1-1.05.84,2.3,2.3,0,0,1,1.2.87,2.27,2.27,0,0,1,.4,1.35,2.49,2.49,0,0,1-.93,2,3.7,3.7,0,0,1-2.44.77A3.52,3.52,0,0,1,128.82,9a2.46,2.46,0,0,1-.91-2h1.89a1.13,1.13,0,0,0,.4.88,1.52,1.52,0,0,0,1,.34,1.5,1.5,0,0,0,1.06-.36,1.24,1.24,0,0,0,.38-.94c0-1-.52-1.43-1.57-1.43h-1Z"/><path class="cls-1" d="M135.79,2a1.86,1.86,0,0,1,.57-1.42A2,2,0,0,1,137.85,0a2.09,2.09,0,0,1,1.5.54A1.91,1.91,0,0,1,139.92,2v.47a1.86,1.86,0,0,1-.57,1.42,2.36,2.36,0,0,1-3,0,1.9,1.9,0,0,1-.57-1.45Zm1.26.5a.88.88,0,0,0,.22.63.78.78,0,0,0,.59.24.73.73,0,0,0,.58-.24.92.92,0,0,0,.22-.65V2a.91.91,0,0,0-.22-.64.83.83,0,0,0-1.17,0,.92.92,0,0,0-.22.66Zm1.18,6.47-.92-.5L142,1l.92.49Zm2.11-1.62a1.85,1.85,0,0,1,.57-1.42,2.36,2.36,0,0,1,3,0,1.9,1.9,0,0,1,.57,1.47v.47a1.85,1.85,0,0,1-.56,1.41,2.35,2.35,0,0,1-3,0,1.89,1.89,0,0,1-.57-1.44Zm1.25.51a.85.85,0,0,0,.24.61.74.74,0,0,0,.58.25c.54,0,.8-.29.8-.88V7.32a.85.85,0,0,0-.22-.63.76.76,0,0,0-.59-.24.78.78,0,0,0-.59.24.93.93,0,0,0-.22.65Z"/><path class="cls-2" d="M135.61,16.24c-1.44,1.44-2.81.66-4.26,2.1.77,0,1.68-.29,2.45-.29-1.45-1.44-3.1-.37-4.54-1.81A1.62,1.62,0,0,0,127,18.53l4.32,4.32a1.64,1.64,0,0,0,2.29,0l4.32-4.32A1.62,1.62,0,0,0,135.61,16.24Z"/><rect class="cls-3" x="119.49" y="32.74" width="25.88" height="154.53"/><rect class="cls-2" x="119.49" y="168.55" width="25.88" height="18.72"/><path class="cls-2" d="M104.27,17.9H160.6a1.34,1.34,0,0,0,0-2.68H104.27a1.34,1.34,0,0,0,0,2.68Z"/><path class="cls-1" d="M417.35,203.24a5.9,5.9,0,0,1-.47,2.44,3.5,3.5,0,0,1-1.33,1.59,3.93,3.93,0,0,1-4,0,3.57,3.57,0,0,1-1.34-1.57,5.51,5.51,0,0,1-.5-2.37v-.69a5.78,5.78,0,0,1,.48-2.42,3.65,3.65,0,0,1,1.35-1.61,3.62,3.62,0,0,1,2-.56,3.77,3.77,0,0,1,2,.55,3.54,3.54,0,0,1,1.34,1.6,6,6,0,0,1,.47,2.44Zm-1.25-.61a4.24,4.24,0,0,0-.68-2.6,2.42,2.42,0,0,0-3.77,0,4.2,4.2,0,0,0-.7,2.51v.7a4.25,4.25,0,0,0,.69,2.58,2.41,2.41,0,0,0,3.78.05,4.24,4.24,0,0,0,.68-2.54Z"/><path class="cls-1" d="M425,204.24a4.26,4.26,0,0,1-.73,2.6,2.39,2.39,0,0,1-2,1,2.61,2.61,0,0,1-2-.81v3.4H419v-9.78h1.11l.06.78a2.48,2.48,0,0,1,2.05-.92,2.39,2.39,0,0,1,2,1,4.27,4.27,0,0,1,.74,2.68Zm-1.21-.14a3.12,3.12,0,0,0-.5-1.89,1.65,1.65,0,0,0-1.4-.69,1.78,1.78,0,0,0-1.65,1v3.38a1.8,1.8,0,0,0,1.66,1,1.63,1.63,0,0,0,1.38-.69A3.42,3.42,0,0,0,423.8,204.1Z"/><path class="cls-1" d="M429.48,207.82a3.08,3.08,0,0,1-2.34-.94,3.51,3.51,0,0,1-.9-2.53v-.22a4.25,4.25,0,0,1,.4-1.88,3.09,3.09,0,0,1,1.13-1.29,2.83,2.83,0,0,1,1.56-.47,2.66,2.66,0,0,1,2.14.91,3.93,3.93,0,0,1,.77,2.6v.5h-4.79a2.52,2.52,0,0,0,.61,1.69,1.93,1.93,0,0,0,1.49.65,2.16,2.16,0,0,0,1.08-.26,2.73,2.73,0,0,0,.78-.7l.74.58A3,3,0,0,1,429.48,207.82Zm-.15-6.33a1.59,1.59,0,0,0-1.23.53,2.58,2.58,0,0,0-.61,1.49H431v-.09a2.33,2.33,0,0,0-.5-1.43A1.52,1.52,0,0,0,429.33,201.49Z"/><path class="cls-1" d="M437.05,201.71a3.61,3.61,0,0,0-.59-.05,1.6,1.6,0,0,0-1.62,1v5h-1.2v-7.06h1.17l0,.81a1.9,1.9,0,0,1,1.69-.95,1.23,1.23,0,0,1,.53.09Z"/><path class="cls-1" d="M442.26,207.69a3.26,3.26,0,0,1-.17-.74,2.7,2.7,0,0,1-2,.87,2.45,2.45,0,0,1-1.71-.59,1.89,1.89,0,0,1-.67-1.5,2,2,0,0,1,.84-1.71,3.92,3.92,0,0,1,2.36-.61h1.17v-.56a1.37,1.37,0,0,0-.37-1,1.55,1.55,0,0,0-1.12-.37,1.85,1.85,0,0,0-1.09.32,1,1,0,0,0-.43.79h-1.22a1.68,1.68,0,0,1,.38-1,2.53,2.53,0,0,1,1-.78,3.45,3.45,0,0,1,1.41-.29,2.85,2.85,0,0,1,1.92.61,2.19,2.19,0,0,1,.71,1.69V206a4.07,4.07,0,0,0,.25,1.55v.1Zm-2-.92a2.19,2.19,0,0,0,1.08-.29,1.74,1.74,0,0,0,.73-.77v-1.45h-.94c-1.48,0-2.22.44-2.22,1.3a1.08,1.08,0,0,0,.38.89A1.4,1.4,0,0,0,440.26,206.77Z"/><path class="cls-1" d="M446.82,198.91v1.72h1.32v.93h-1.32V206a1,1,0,0,0,.17.63.72.72,0,0,0,.6.22,3.13,3.13,0,0,0,.58-.08v1a3.42,3.42,0,0,1-.93.13,1.5,1.5,0,0,1-1.22-.49,2.11,2.11,0,0,1-.41-1.39v-4.38h-1.29v-.93h1.29v-1.72Z"/><path class="cls-1" d="M449.55,198.75a.73.73,0,0,1,.18-.5.7.7,0,0,1,.54-.2.69.69,0,0,1,.53.2.74.74,0,0,1,.19.5.75.75,0,0,1-1.26.49A.69.69,0,0,1,449.55,198.75Zm1.31,8.94h-1.21v-7.06h1.21Z"/><path class="cls-1" d="M452.47,204.09a4.24,4.24,0,0,1,.41-1.87,3.15,3.15,0,0,1,1.14-1.28,3.11,3.11,0,0,1,1.66-.45,3,3,0,0,1,2.34,1,3.89,3.89,0,0,1,.89,2.66v.09a4.15,4.15,0,0,1-.4,1.85,3,3,0,0,1-1.13,1.28,3.15,3.15,0,0,1-1.68.45,3,3,0,0,1-2.33-1,3.77,3.77,0,0,1-.9-2.64Zm1.22.15a3,3,0,0,0,.55,1.89,1.85,1.85,0,0,0,2.92,0,3.35,3.35,0,0,0,.54-2,3,3,0,0,0-.55-1.88,1.76,1.76,0,0,0-1.47-.72,1.71,1.71,0,0,0-1.44.71A3.24,3.24,0,0,0,453.69,204.24Z"/><path class="cls-1" d="M461.57,200.63l0,.88a2.56,2.56,0,0,1,2.11-1c1.5,0,2.25.85,2.26,2.53v4.67h-1.21V203a1.64,1.64,0,0,0-.34-1.13,1.39,1.39,0,0,0-1.07-.37,1.77,1.77,0,0,0-1,.31,2.25,2.25,0,0,0-.69.83v5h-1.21v-7.06Z"/><path class="cls-1" d="M471.92,205.82a.87.87,0,0,0-.37-.76,3.46,3.46,0,0,0-1.29-.47,6.16,6.16,0,0,1-1.45-.47,2.06,2.06,0,0,1-.8-.65,1.62,1.62,0,0,1-.26-.91,1.87,1.87,0,0,1,.74-1.47,2.86,2.86,0,0,1,1.88-.6,3,3,0,0,1,1.95.62,2,2,0,0,1,.74,1.59h-1.21a1.08,1.08,0,0,0-.42-.85,1.58,1.58,0,0,0-1.06-.36,1.69,1.69,0,0,0-1,.28,1,1,0,0,0-.37.76.74.74,0,0,0,.35.66,4.75,4.75,0,0,0,1.25.42,7.45,7.45,0,0,1,1.47.48,2.22,2.22,0,0,1,.83.68,1.65,1.65,0,0,1,.27,1,1.8,1.8,0,0,1-.76,1.52,3.17,3.17,0,0,1-2,.57,3.6,3.6,0,0,1-1.51-.3,2.49,2.49,0,0,1-1-.84,2,2,0,0,1-.37-1.16h1.21a1.23,1.23,0,0,0,.49,1,1.87,1.87,0,0,0,1.2.36,2,2,0,0,0,1.1-.28A.87.87,0,0,0,471.92,205.82Z"/><path class="cls-1" d="M235,5.85a2.39,2.39,0,0,1-1.72.72,2.56,2.56,0,0,1-2-.86,3.42,3.42,0,0,1-.76-2.34,3.66,3.66,0,0,1,.41-1.71A3,3,0,0,1,232,.44,3.16,3.16,0,0,1,233.67,0a3,3,0,0,1,1.68.47,3.09,3.09,0,0,1,1.13,1.35,5,5,0,0,1,.42,2v.7a5.48,5.48,0,0,1-1.19,3.73,4.45,4.45,0,0,1-3.35,1.45h-.46V8.17h.42C234,8.08,234.85,7.31,235,5.85Zm-1.26-.72a1.3,1.3,0,0,0,.79-.24,1.57,1.57,0,0,0,.5-.56V3.55a2.54,2.54,0,0,0-.37-1.49,1.14,1.14,0,0,0-1-.53,1.08,1.08,0,0,0-.93.52,2.15,2.15,0,0,0-.37,1.3,2.15,2.15,0,0,0,.36,1.28A1.16,1.16,0,0,0,233.72,5.13Z"/><path class="cls-1" d="M238.21,2a1.86,1.86,0,0,1,.57-1.42A2,2,0,0,1,240.27,0a2.08,2.08,0,0,1,1.5.54A1.91,1.91,0,0,1,242.34,2v.47a1.86,1.86,0,0,1-.57,1.42,2.34,2.34,0,0,1-3,0,1.9,1.9,0,0,1-.58-1.45Zm1.26.5a.88.88,0,0,0,.22.63.78.78,0,0,0,.6.24.75.75,0,0,0,.58-.24,1,1,0,0,0,.21-.65V2a1,1,0,0,0-.21-.64.78.78,0,0,0-.6-.24.75.75,0,0,0-.58.24.92.92,0,0,0-.22.66Zm1.19,6.47-.92-.5L244.38,1l.92.49Zm2.1-1.62a1.82,1.82,0,0,1,.58-1.42,2.34,2.34,0,0,1,3,0,1.87,1.87,0,0,1,.58,1.47v.47a1.85,1.85,0,0,1-.57,1.41,2.05,2.05,0,0,1-1.49.54,2.1,2.1,0,0,1-1.51-.54,1.89,1.89,0,0,1-.57-1.44Zm1.25.51a.85.85,0,0,0,.24.61.76.76,0,0,0,.59.25c.53,0,.8-.29.8-.88V7.32a.85.85,0,0,0-.23-.63.83.83,0,0,0-1.17,0,.89.89,0,0,0-.23.65Z"/><path class="cls-2" d="M238.58,16.24c-1.44,1.44-2.81.66-4.25,2.1.76,0,1.68-.29,2.44-.29-1.44-1.44-3.1-.37-4.54-1.81a1.62,1.62,0,0,0-2.29,2.29l4.32,4.32a1.64,1.64,0,0,0,2.29,0l4.33-4.32A1.62,1.62,0,0,0,238.58,16.24Z"/><rect class="cls-3" x="222.47" y="32.74" width="25.88" height="154.53"/><rect class="cls-2" x="222.47" y="174.33" width="25.88" height="12.94"/><path class="cls-2" d="M207.24,17.9h56.33a1.34,1.34,0,0,0,0-2.68H207.24a1.34,1.34,0,0,0,0,2.68Z"/><path class="cls-1" d="M1040.94,203.24a5.9,5.9,0,0,1-.47,2.44,3.5,3.5,0,0,1-1.33,1.59,3.68,3.68,0,0,1-5.36-1.57,5.66,5.66,0,0,1-.49-2.37v-.69a5.78,5.78,0,0,1,.48-2.42,3.65,3.65,0,0,1,1.35-1.61,3.62,3.62,0,0,1,2-.56,3.77,3.77,0,0,1,2,.55,3.54,3.54,0,0,1,1.34,1.6,6,6,0,0,1,.47,2.44Zm-1.25-.61a4.24,4.24,0,0,0-.68-2.6,2.42,2.42,0,0,0-3.77,0,4.2,4.2,0,0,0-.7,2.51v.7a4.25,4.25,0,0,0,.69,2.58,2.22,2.22,0,0,0,1.9.94,2.24,2.24,0,0,0,1.88-.89,4.24,4.24,0,0,0,.68-2.54Z"/><path class="cls-1" d="M1044.27,198.91v1.72h1.32v.93h-1.32V206a1,1,0,0,0,.18.63.72.72,0,0,0,.6.22,3,3,0,0,0,.57-.08v1a3.3,3.3,0,0,1-.92.13,1.52,1.52,0,0,1-1.23-.49,2.11,2.11,0,0,1-.41-1.39v-4.38h-1.28v-.93h1.28v-1.72Z"/><path class="cls-1" d="M1048.21,201.48a2.57,2.57,0,0,1,2.09-1c1.49,0,2.25.85,2.26,2.53v4.67h-1.21V203a1.59,1.59,0,0,0-.35-1.13,1.38,1.38,0,0,0-1.07-.37,1.74,1.74,0,0,0-1,.31,2.25,2.25,0,0,0-.69.83v5H1047v-10h1.21Z"/><path class="cls-1" d="M1057.3,207.82a3.1,3.1,0,0,1-2.34-.94,3.51,3.51,0,0,1-.9-2.53v-.22a4.25,4.25,0,0,1,.41-1.88,3.07,3.07,0,0,1,1.12-1.29,2.83,2.83,0,0,1,1.56-.47,2.68,2.68,0,0,1,2.15.91,4,4,0,0,1,.76,2.6v.5h-4.79a2.52,2.52,0,0,0,.61,1.69,1.93,1.93,0,0,0,1.49.65,2.11,2.11,0,0,0,1.08-.26,2.73,2.73,0,0,0,.78-.7l.74.58A3,3,0,0,1,1057.3,207.82Zm-.15-6.33a1.59,1.59,0,0,0-1.22.53,2.52,2.52,0,0,0-.62,1.49h3.54v-.09a2.27,2.27,0,0,0-.5-1.43A1.52,1.52,0,0,0,1057.15,201.49Z"/><path class="cls-1" d="M1064.87,201.71a3.61,3.61,0,0,0-.59-.05,1.59,1.59,0,0,0-1.61,1v5h-1.21v-7.06h1.17l0,.81a1.9,1.9,0,0,1,1.69-.95,1.23,1.23,0,0,1,.53.09Z"/><path class="cls-1" d="M1070.1,205.82a.87.87,0,0,0-.37-.76,3.54,3.54,0,0,0-1.29-.47,6.16,6.16,0,0,1-1.45-.47,2.06,2.06,0,0,1-.8-.65,1.62,1.62,0,0,1-.26-.91,1.87,1.87,0,0,1,.74-1.47,2.86,2.86,0,0,1,1.88-.6,2.93,2.93,0,0,1,1.94.62,2,2,0,0,1,.75,1.59H1070a1.08,1.08,0,0,0-.42-.85,1.58,1.58,0,0,0-1.06-.36,1.67,1.67,0,0,0-1,.28.92.92,0,0,0-.37.76.74.74,0,0,0,.35.66,4.61,4.61,0,0,0,1.25.42,7.12,7.12,0,0,1,1.46.48,2.18,2.18,0,0,1,.84.68,1.65,1.65,0,0,1,.27,1,1.8,1.8,0,0,1-.76,1.52,3.18,3.18,0,0,1-2,.57,3.59,3.59,0,0,1-1.5-.3,2.49,2.49,0,0,1-1-.84,2,2,0,0,1-.37-1.16h1.21a1.23,1.23,0,0,0,.49,1,1.86,1.86,0,0,0,1.19.36,2,2,0,0,0,1.1-.28A.85.85,0,0,0,1070.1,205.82Z"/><path class="cls-1" d="M1048.15,9.65h-1.89V2.37l-2.25.7V1.54L1048,.13h.2Z"/><path class="cls-1" d="M1056.82,6.07h1.08V7.59h-1.08V9.65h-1.89V7.59H1051L1051,6.4l4-6.26h1.9Zm-4,0h2.1V2.71l-.12.22Z"/><path class="cls-1" d="M1058.89,2a1.86,1.86,0,0,1,.57-1.42,2,2,0,0,1,1.48-.55,2.1,2.1,0,0,1,1.51.54A1.91,1.91,0,0,1,1063,2v.47a1.86,1.86,0,0,1-.57,1.42,2.12,2.12,0,0,1-1.49.53,2.09,2.09,0,0,1-1.5-.54,1.9,1.9,0,0,1-.57-1.45Zm1.25.5a.89.89,0,0,0,.23.63.76.76,0,0,0,.59.24.74.74,0,0,0,.58-.24,1,1,0,0,0,.22-.65V2a1,1,0,0,0-.22-.64.75.75,0,0,0-.6-.24.77.77,0,0,0-.58.24,1,1,0,0,0-.22.66Zm1.19,6.47-.92-.5L1065.05,1l.92.49Zm2.1-1.62A1.85,1.85,0,0,1,1064,5.9a2.36,2.36,0,0,1,3,0,1.9,1.9,0,0,1,.57,1.47v.47a1.88,1.88,0,0,1-.56,1.41,2.37,2.37,0,0,1-3,0,1.89,1.89,0,0,1-.57-1.44Zm1.26.51a.89.89,0,0,0,.23.61.78.78,0,0,0,.59.25c.53,0,.8-.29.8-.88V7.32a.89.89,0,0,0-.22-.63.78.78,0,0,0-.59-.24.76.76,0,0,0-.59.24.88.88,0,0,0-.22.65Z"/><path class="cls-2" d="M1055.42,16.24c-1.44,1.44-2.81.66-4.25,2.1.76,0,1.67-.29,2.44-.29-1.44-1.44-3.1-.37-4.54-1.81a1.62,1.62,0,0,0-2.29,2.29l4.32,4.32a1.64,1.64,0,0,0,2.29,0l4.32-4.32A1.62,1.62,0,0,0,1055.42,16.24Z"/><rect class="cls-3" x="1039.3" y="32.74" width="25.88" height="154.53"/><rect class="cls-2" x="1039.3" y="174.33" width="25.88" height="12.94"/><path class="cls-2" d="M1024.08,17.9h56.33a1.34,1.34,0,0,0,0-2.68h-56.33a1.34,1.34,0,0,0,0,2.68Z"/><path class="cls-1" d="M628.48,205.2h-4l-.9,2.49h-1.29l3.63-9.51H627l3.64,9.51h-1.29Zm-3.6-1h3.23l-1.62-4.45Z"/><path class="cls-1" d="M635.19,201.71a3.83,3.83,0,0,0-.6-.05,1.59,1.59,0,0,0-1.61,1v5h-1.21v-7.06h1.17l0,.81a1.87,1.87,0,0,1,1.68-.95,1.28,1.28,0,0,1,.54.09Z"/><path class="cls-1" d="M638.26,198.91v1.72h1.32v.93h-1.32V206a1,1,0,0,0,.18.63.71.71,0,0,0,.6.22,3,3,0,0,0,.57-.08v1a3.3,3.3,0,0,1-.92.13,1.52,1.52,0,0,1-1.23-.49,2.11,2.11,0,0,1-.41-1.39v-4.38h-1.28v-.93h1.28v-1.72Z"/><path class="cls-1" d="M645.11,205.82a.9.9,0,0,0-.37-.76,3.61,3.61,0,0,0-1.29-.47,6.26,6.26,0,0,1-1.46-.47,2.09,2.09,0,0,1-.79-.65,1.62,1.62,0,0,1-.26-.91,1.85,1.85,0,0,1,.73-1.47,2.88,2.88,0,0,1,1.88-.6,3,3,0,0,1,2,.62,2,2,0,0,1,.75,1.59H645a1.09,1.09,0,0,0-.43-.85,1.57,1.57,0,0,0-1.06-.36,1.66,1.66,0,0,0-1,.28.92.92,0,0,0-.37.76.73.73,0,0,0,.34.66,4.71,4.71,0,0,0,1.26.42,7.12,7.12,0,0,1,1.46.48,2.14,2.14,0,0,1,.83.68,1.65,1.65,0,0,1,.28,1,1.83,1.83,0,0,1-.76,1.52,3.2,3.2,0,0,1-2,.57,3.55,3.55,0,0,1-1.5-.3,2.37,2.37,0,0,1-1-.84,2,2,0,0,1-.37-1.16h1.21a1.25,1.25,0,0,0,.48,1,1.88,1.88,0,0,0,1.2.36,2,2,0,0,0,1.1-.28A.85.85,0,0,0,645.11,205.82Z"/><path class="cls-1" d="M655.57,207.69a2.44,2.44,0,0,1-.17-.74,2.73,2.73,0,0,1-2,.87,2.47,2.47,0,0,1-1.71-.59,1.89,1.89,0,0,1-.67-1.5,2,2,0,0,1,.84-1.71,3.94,3.94,0,0,1,2.36-.61h1.18v-.56a1.37,1.37,0,0,0-.38-1,1.55,1.55,0,0,0-1.12-.37,1.8,1.8,0,0,0-1.08.32,1,1,0,0,0-.44.79h-1.22a1.68,1.68,0,0,1,.38-1,2.53,2.53,0,0,1,1-.78,3.45,3.45,0,0,1,1.41-.29,2.85,2.85,0,0,1,1.92.61,2.19,2.19,0,0,1,.71,1.69V206a4.07,4.07,0,0,0,.25,1.55v.1Zm-2-.92a2.19,2.19,0,0,0,1.08-.29,1.82,1.82,0,0,0,.74-.77v-1.45h-1c-1.48,0-2.22.44-2.22,1.3a1.08,1.08,0,0,0,.38.89A1.4,1.4,0,0,0,653.56,206.77Z"/><path class="cls-1" d="M659.62,200.63l0,.88a2.58,2.58,0,0,1,2.12-1c1.49,0,2.24.85,2.26,2.53v4.67h-1.21V203a1.64,1.64,0,0,0-.35-1.13,1.39,1.39,0,0,0-1.07-.37,1.74,1.74,0,0,0-1,.31,2.07,2.07,0,0,0-.69.83v5h-1.21v-7.06Z"/><path class="cls-1" d="M665.56,204.1a4.13,4.13,0,0,1,.78-2.62,2.42,2.42,0,0,1,2-1,2.47,2.47,0,0,1,2,.85v-3.68h1.21v10h-1.11l-.06-.76a2.44,2.44,0,0,1-2,.89,2.41,2.41,0,0,1-2-1,4.18,4.18,0,0,1-.78-2.63Zm1.21.14a3.13,3.13,0,0,0,.5,1.88,1.61,1.61,0,0,0,1.37.68,1.77,1.77,0,0,0,1.68-1v-3.25a1.77,1.77,0,0,0-1.67-1,1.6,1.6,0,0,0-1.38.69A3.43,3.43,0,0,0,666.77,204.24Z"/><path class="cls-1" d="M628,223.75v-9.51h2.68a4.4,4.4,0,0,1,2.2.54,3.82,3.82,0,0,1,1.47,1.56,5.13,5.13,0,0,1,.53,2.33v.61a5.22,5.22,0,0,1-.52,2.36,3.65,3.65,0,0,1-1.49,1.55,4.62,4.62,0,0,1-2.24.56Zm1.25-8.49v7.46h1.32a2.88,2.88,0,0,0,2.26-.9,3.72,3.72,0,0,0,.81-2.57v-.56a3.78,3.78,0,0,0-.77-2.52,2.68,2.68,0,0,0-2.15-.91Z"/><path class="cls-1" d="M639.48,223.88a3.08,3.08,0,0,1-2.33-.95,3.51,3.51,0,0,1-.91-2.52v-.22a4.22,4.22,0,0,1,.41-1.88,3.16,3.16,0,0,1,1.12-1.3,2.82,2.82,0,0,1,1.56-.46,2.65,2.65,0,0,1,2.15.91,3.92,3.92,0,0,1,.76,2.6v.5h-4.79a2.54,2.54,0,0,0,.61,1.69,1.92,1.92,0,0,0,1.49.64,2.11,2.11,0,0,0,1.08-.26,2.7,2.7,0,0,0,.78-.69l.74.57A3,3,0,0,1,639.48,223.88Zm-.15-6.34a1.62,1.62,0,0,0-1.22.53,2.58,2.58,0,0,0-.62,1.5H641v-.1a2.28,2.28,0,0,0-.49-1.42A1.53,1.53,0,0,0,639.33,217.54Z"/><path class="cls-1" d="M647.75,221.87a.89.89,0,0,0-.36-.76,3.61,3.61,0,0,0-1.29-.47,5.82,5.82,0,0,1-1.46-.47,2.13,2.13,0,0,1-.8-.65,1.56,1.56,0,0,1-.25-.9,1.83,1.83,0,0,1,.73-1.47,2.88,2.88,0,0,1,1.88-.6,2.92,2.92,0,0,1,1.95.62,2,2,0,0,1,.75,1.59h-1.22a1.09,1.09,0,0,0-.42-.86,1.57,1.57,0,0,0-1.06-.36,1.66,1.66,0,0,0-1,.29.9.9,0,0,0-.38.75.74.74,0,0,0,.35.66,4.1,4.1,0,0,0,1.25.42,6.8,6.8,0,0,1,1.47.49,2.11,2.11,0,0,1,.83.67,1.7,1.7,0,0,1,.27,1,1.78,1.78,0,0,1-.76,1.51,3.11,3.11,0,0,1-2,.58,3.52,3.52,0,0,1-1.5-.3,2.46,2.46,0,0,1-1-.84,2.08,2.08,0,0,1-.37-1.17h1.21a1.23,1.23,0,0,0,.49,1,1.87,1.87,0,0,0,1.2.36,1.91,1.91,0,0,0,1.1-.28A.83.83,0,0,0,647.75,221.87Z"/><path class="cls-1" d="M650.54,214.8a.71.71,0,0,1,.18-.49.67.67,0,0,1,.54-.21.66.66,0,0,1,.53.21.71.71,0,0,1,.18.49.65.65,0,0,1-.71.69.7.7,0,0,1-.54-.2A.69.69,0,0,1,650.54,214.8Zm1.31,8.95h-1.21v-7.07h1.21Z"/><path class="cls-1" d="M653.5,220.15a4.15,4.15,0,0,1,.76-2.63,2.64,2.64,0,0,1,4-.06l.06-.78h1.11v6.9a2.89,2.89,0,0,1-.82,2.16,3,3,0,0,1-2.18.79,3.63,3.63,0,0,1-1.5-.33,2.59,2.59,0,0,1-1.12-.89l.63-.73a2.36,2.36,0,0,0,1.9,1,1.86,1.86,0,0,0,1.38-.49,1.91,1.91,0,0,0,.49-1.4V223a2.47,2.47,0,0,1-2,.84,2.43,2.43,0,0,1-2-1A4.4,4.4,0,0,1,653.5,220.15Zm1.21.14a3.16,3.16,0,0,0,.49,1.88,1.6,1.6,0,0,0,1.37.68,1.78,1.78,0,0,0,1.68-1v-3.22a1.78,1.78,0,0,0-1.66-1,1.6,1.6,0,0,0-1.38.69A3.45,3.45,0,0,0,654.71,220.29Z"/><path class="cls-1" d="M662.43,216.68l0,.89a2.58,2.58,0,0,1,2.12-1c1.49,0,2.24.84,2.26,2.53v4.67h-1.21v-4.68a1.59,1.59,0,0,0-.35-1.13,1.41,1.41,0,0,0-1.07-.37,1.75,1.75,0,0,0-1,.32,2,2,0,0,0-.69.82v5h-1.21v-7.07Z"/><path class="cls-1" d="M339.74,2.67a2.18,2.18,0,0,1-.35,1.22,2.47,2.47,0,0,1-.95.86,2.76,2.76,0,0,1,1.1.92,2.35,2.35,0,0,1,.4,1.37,2.49,2.49,0,0,1-.86,2,3.5,3.5,0,0,1-2.35.74A3.54,3.54,0,0,1,334.38,9a2.49,2.49,0,0,1-.87-2,2.41,2.41,0,0,1,.41-1.38A2.71,2.71,0,0,1,335,4.75a2.47,2.47,0,0,1-.95-.86,2.18,2.18,0,0,1-.34-1.22,2.47,2.47,0,0,1,.81-1.94,3.19,3.19,0,0,1,2.2-.72,3.27,3.27,0,0,1,2.2.71A2.48,2.48,0,0,1,339.74,2.67Zm-1.69,4.24a1.38,1.38,0,0,0-.36-1,1.44,1.44,0,0,0-1.93,0,1.38,1.38,0,0,0-.36,1,1.32,1.32,0,0,0,.36,1,1.26,1.26,0,0,0,1,.38,1.29,1.29,0,0,0,1-.36A1.37,1.37,0,0,0,338.05,6.91Zm-.2-4.15a1.32,1.32,0,0,0-.29-.89,1.18,1.18,0,0,0-1.65,0,1.25,1.25,0,0,0-.3.9,1.33,1.33,0,0,0,.3.91,1.15,1.15,0,0,0,1.65,0A1.38,1.38,0,0,0,337.85,2.76Z"/><path class="cls-1" d="M341.19,2a1.86,1.86,0,0,1,.57-1.42A2,2,0,0,1,343.25,0a2.09,2.09,0,0,1,1.5.54A1.91,1.91,0,0,1,345.32,2v.47a1.86,1.86,0,0,1-.57,1.42,2.12,2.12,0,0,1-1.49.53,2.09,2.09,0,0,1-1.5-.54,1.9,1.9,0,0,1-.57-1.45Zm1.25.5a.89.89,0,0,0,.23.63.78.78,0,0,0,.59.24.74.74,0,0,0,.58-.24.92.92,0,0,0,.22-.65V2a.91.91,0,0,0-.22-.64.83.83,0,0,0-1.17,0,.93.93,0,0,0-.23.66Zm1.19,6.47-.92-.5L347.36,1l.92.49Zm2.11-1.62a1.85,1.85,0,0,1,.57-1.42,2.36,2.36,0,0,1,3,0,1.9,1.9,0,0,1,.57,1.47v.47a1.88,1.88,0,0,1-.56,1.41,2.08,2.08,0,0,1-1.5.54,2.12,2.12,0,0,1-1.51-.54,1.92,1.92,0,0,1-.56-1.44Zm1.25.51a.85.85,0,0,0,.24.61.74.74,0,0,0,.58.25c.53,0,.8-.29.8-.88V7.32a.85.85,0,0,0-.22-.63.85.85,0,0,0-1.18,0,.88.88,0,0,0-.22.65Z"/><path class="cls-2" d="M341.56,16.24c-1.44,1.44-2.81.66-4.25,2.1.76,0,1.67-.29,2.44-.29-1.44-1.44-3.1-.37-4.54-1.81a1.62,1.62,0,0,0-2.29,2.29l4.32,4.32a1.64,1.64,0,0,0,2.29,0l4.32-4.32A1.62,1.62,0,0,0,341.56,16.24Z"/><rect class="cls-3" x="325.44" y="32.74" width="25.88" height="154.53"/><rect class="cls-2" x="325.44" y="174.33" width="25.88" height="12.94"/><path class="cls-2" d="M310.22,17.9h56.33a1.34,1.34,0,0,0,0-2.68H310.22a1.34,1.34,0,0,0,0,2.68Z"/><path class="cls-1" d="M822.77,203.3h-4.12v3.37h4.79v1h-6.05v-9.51h6v1h-4.72v3.06h4.12Z"/><path class="cls-1" d="M826,200.63l0,.88a2.57,2.57,0,0,1,2.12-1c1.49,0,2.24.85,2.26,2.53v4.67h-1.21V203a1.64,1.64,0,0,0-.35-1.13,1.39,1.39,0,0,0-1.07-.37,1.72,1.72,0,0,0-1,.31,2.07,2.07,0,0,0-.69.83v5h-1.21v-7.06Z"/><path class="cls-1" d="M831.9,204.1a4.16,4.16,0,0,1,.77-2.63,2.62,2.62,0,0,1,4-.06l.06-.78h1.1v6.89a2.86,2.86,0,0,1-.81,2.16,3,3,0,0,1-2.19.79,3.57,3.57,0,0,1-1.49-.32,2.61,2.61,0,0,1-1.12-.9l.63-.72a2.36,2.36,0,0,0,1.9,1,1.83,1.83,0,0,0,1.37-.5,1.89,1.89,0,0,0,.5-1.4V207a2.52,2.52,0,0,1-2,.83,2.4,2.4,0,0,1-2-1A4.35,4.35,0,0,1,831.9,204.1Zm1.22.14a3.18,3.18,0,0,0,.49,1.88,1.59,1.59,0,0,0,1.37.68,1.78,1.78,0,0,0,1.68-1v-3.23a1.8,1.8,0,0,0-1.67-1,1.6,1.6,0,0,0-1.38.69A3.43,3.43,0,0,0,833.12,204.24Z"/><path class="cls-1" d="M839.7,198.75a.73.73,0,0,1,.18-.5.69.69,0,0,1,.53-.2.7.7,0,0,1,.54.2.73.73,0,0,1,.18.5.69.69,0,0,1-.18.49.7.7,0,0,1-.54.2.65.65,0,0,1-.71-.69Zm1.31,8.94H839.8v-7.06H841Z"/><path class="cls-1" d="M844.08,200.63l0,.88a2.58,2.58,0,0,1,2.12-1c1.49,0,2.25.85,2.26,2.53v4.67h-1.21V203a1.59,1.59,0,0,0-.35-1.13,1.38,1.38,0,0,0-1.07-.37,1.74,1.74,0,0,0-1,.31,2.16,2.16,0,0,0-.69.83v5h-1.21v-7.06Z"/><path class="cls-1" d="M853.26,207.82a3.08,3.08,0,0,1-2.34-.94,3.52,3.52,0,0,1-.91-2.53v-.22a4.25,4.25,0,0,1,.41-1.88,3.07,3.07,0,0,1,1.12-1.29,2.83,2.83,0,0,1,1.56-.47,2.68,2.68,0,0,1,2.15.91A3.93,3.93,0,0,1,856,204v.5h-4.79a2.52,2.52,0,0,0,.61,1.69,1.93,1.93,0,0,0,1.49.65,2.11,2.11,0,0,0,1.08-.26,2.73,2.73,0,0,0,.78-.7l.74.58A3,3,0,0,1,853.26,207.82Zm-.16-6.33a1.59,1.59,0,0,0-1.22.53,2.59,2.59,0,0,0-.62,1.49h3.54v-.09a2.33,2.33,0,0,0-.49-1.43A1.55,1.55,0,0,0,853.1,201.49Z"/><path class="cls-1" d="M860.34,207.82a3.11,3.11,0,0,1-2.34-.94,3.51,3.51,0,0,1-.9-2.53v-.22a4.39,4.39,0,0,1,.4-1.88,3.16,3.16,0,0,1,1.13-1.29,2.83,2.83,0,0,1,1.56-.47,2.68,2.68,0,0,1,2.15.91,4,4,0,0,1,.76,2.6v.5h-4.79a2.52,2.52,0,0,0,.61,1.69,1.93,1.93,0,0,0,1.49.65,2.11,2.11,0,0,0,1.08-.26,2.73,2.73,0,0,0,.78-.7l.74.58A3,3,0,0,1,860.34,207.82Zm-.15-6.33A1.61,1.61,0,0,0,859,202a2.58,2.58,0,0,0-.61,1.49h3.54v-.09a2.27,2.27,0,0,0-.5-1.43A1.52,1.52,0,0,0,860.19,201.49Z"/><path class="cls-1" d="M867.91,201.71a3.61,3.61,0,0,0-.59-.05,1.59,1.59,0,0,0-1.61,1v5H864.5v-7.06h1.17l0,.81a1.9,1.9,0,0,1,1.69-.95,1.23,1.23,0,0,1,.53.09Z"/><path class="cls-1" d="M869,198.75a.73.73,0,0,1,.18-.5.69.69,0,0,1,.53-.2.7.7,0,0,1,.54.2.73.73,0,0,1,.18.5.69.69,0,0,1-.18.49.7.7,0,0,1-.54.2.65.65,0,0,1-.71-.69Zm1.31,8.94h-1.21v-7.06h1.21Z"/><path class="cls-1" d="M873.41,200.63l0,.88a2.58,2.58,0,0,1,2.12-1c1.49,0,2.25.85,2.26,2.53v4.67h-1.21V203a1.59,1.59,0,0,0-.35-1.13,1.38,1.38,0,0,0-1.07-.37,1.74,1.74,0,0,0-1,.31,2.16,2.16,0,0,0-.69.83v5h-1.21v-7.06Z"/><path class="cls-1" d="M879.36,204.1a4.16,4.16,0,0,1,.77-2.63,2.62,2.62,0,0,1,4-.06l.06-.78h1.11v6.89a2.86,2.86,0,0,1-.82,2.16,3,3,0,0,1-2.18.79,3.62,3.62,0,0,1-1.5-.32,2.61,2.61,0,0,1-1.12-.9l.63-.72a2.36,2.36,0,0,0,1.9,1,1.72,1.72,0,0,0,1.87-1.9V207a2.49,2.49,0,0,1-2,.83,2.4,2.4,0,0,1-2-1A4.35,4.35,0,0,1,879.36,204.1Zm1.22.14a3.18,3.18,0,0,0,.49,1.88,1.6,1.6,0,0,0,1.37.68,1.78,1.78,0,0,0,1.68-1v-3.23a1.8,1.8,0,0,0-1.67-1,1.6,1.6,0,0,0-1.37.69A3.43,3.43,0,0,0,880.58,204.24Z"/><path class="cls-1" d="M443,1.19l-3.67,8.46h-2l3.69-8h-4.73V.14H443Z"/><path class="cls-1" d="M444.17,2a1.89,1.89,0,0,1,.56-1.42A2,2,0,0,1,446.22,0a2.1,2.1,0,0,1,1.51.54A1.94,1.94,0,0,1,448.29,2v.47a1.89,1.89,0,0,1-.56,1.42,2.12,2.12,0,0,1-1.49.53,2.09,2.09,0,0,1-1.5-.54,1.9,1.9,0,0,1-.57-1.45Zm1.25.5a.85.85,0,0,0,.23.63.83.83,0,0,0,1.17,0,1,1,0,0,0,.21-.65V2a1,1,0,0,0-.21-.64.77.77,0,0,0-.6-.24.75.75,0,0,0-.58.24.92.92,0,0,0-.22.66Zm1.19,6.47-.92-.5L450.33,1l.92.49Zm2.1-1.62a1.82,1.82,0,0,1,.58-1.42,2.08,2.08,0,0,1,1.49-.54,2.12,2.12,0,0,1,1.5.53,1.9,1.9,0,0,1,.57,1.47v.47a1.88,1.88,0,0,1-.56,1.41,2.37,2.37,0,0,1-3,0,1.89,1.89,0,0,1-.57-1.44Zm1.26.51a.84.84,0,0,0,.23.61.76.76,0,0,0,.59.25c.53,0,.8-.29.8-.88V7.32a.85.85,0,0,0-.23-.63.74.74,0,0,0-.58-.24.76.76,0,0,0-.59.24.88.88,0,0,0-.22.65Z"/><path class="cls-2" d="M444.54,16.24c-1.44,1.44-2.82.66-4.26,2.1.77,0,1.68-.29,2.44-.29-1.44-1.44-3.1-.37-4.54-1.81a1.62,1.62,0,0,0-2.29,2.29l4.32,4.32a1.65,1.65,0,0,0,2.3,0l4.32-4.32A1.62,1.62,0,0,0,444.54,16.24Z"/><rect class="cls-3" x="428.42" y="32.74" width="25.88" height="154.53"/><rect class="cls-2" x="428.42" y="176.3" width="25.88" height="10.96"/><path class="cls-2" d="M413.19,17.9h56.34a1.34,1.34,0,0,0,0-2.68H413.19a1.34,1.34,0,0,0,0,2.68Z"/><path class="cls-1" d="M106.48,207.69v-9.51h3.11a3.6,3.6,0,0,1,2.33.64,2.32,2.32,0,0,1,.78,1.9,2,2,0,0,1-.38,1.18,2.5,2.5,0,0,1-1,.79,2.23,2.23,0,0,1,1.22.82A2.39,2.39,0,0,1,113,205a2.53,2.53,0,0,1-.83,2,3.4,3.4,0,0,1-2.34.73Zm1.25-5.45h1.9a2,2,0,0,0,1.32-.41,1.42,1.42,0,0,0,.49-1.12,1.36,1.36,0,0,0-.46-1.15,2.29,2.29,0,0,0-1.39-.35h-1.86Zm0,1v3.43h2.07a2,2,0,0,0,1.39-.46,1.61,1.61,0,0,0,.5-1.25c0-1.14-.62-1.72-1.87-1.72Z"/><path class="cls-1" d="M119,207a2.54,2.54,0,0,1-2.07.83,2.23,2.23,0,0,1-1.72-.65,2.91,2.91,0,0,1-.6-1.95v-4.59h1.21v4.56c0,1.07.44,1.61,1.31,1.61a1.81,1.81,0,0,0,1.84-1v-5.14h1.21v7.06H119Z"/><path class="cls-1" d="M126.11,205.82a.87.87,0,0,0-.37-.76,3.54,3.54,0,0,0-1.29-.47,6.16,6.16,0,0,1-1.45-.47,2.06,2.06,0,0,1-.8-.65,1.62,1.62,0,0,1-.26-.91,1.87,1.87,0,0,1,.74-1.47,2.85,2.85,0,0,1,1.87-.6,2.94,2.94,0,0,1,2,.62,2,2,0,0,1,.75,1.59H126a1.08,1.08,0,0,0-.42-.85,1.59,1.59,0,0,0-1.07-.36,1.66,1.66,0,0,0-1,.28.92.92,0,0,0-.37.76.74.74,0,0,0,.35.66,4.61,4.61,0,0,0,1.25.42,7.12,7.12,0,0,1,1.46.48,2.18,2.18,0,0,1,.84.68,1.65,1.65,0,0,1,.27,1,1.8,1.8,0,0,1-.76,1.52,3.2,3.2,0,0,1-2,.57,3.59,3.59,0,0,1-1.5-.3,2.49,2.49,0,0,1-1-.84,2,2,0,0,1-.37-1.16h1.21a1.23,1.23,0,0,0,.49,1,1.86,1.86,0,0,0,1.19.36,2,2,0,0,0,1.1-.28A.85.85,0,0,0,126.11,205.82Z"/><path class="cls-1" d="M128.9,198.75a.73.73,0,0,1,.18-.5.69.69,0,0,1,.53-.2.72.72,0,0,1,.54.2.73.73,0,0,1,.18.5.69.69,0,0,1-.18.49.72.72,0,0,1-.54.2.65.65,0,0,1-.71-.69Zm1.31,8.94H129v-7.06h1.21Z"/><path class="cls-1" d="M133.28,200.63l0,.88a2.58,2.58,0,0,1,2.12-1c1.49,0,2.24.85,2.26,2.53v4.67h-1.21V203a1.59,1.59,0,0,0-.35-1.13,1.38,1.38,0,0,0-1.07-.37,1.74,1.74,0,0,0-1,.31,2.07,2.07,0,0,0-.69.83v5h-1.21v-7.06Z"/><path class="cls-1" d="M142.45,207.82a3.1,3.1,0,0,1-2.34-.94,3.51,3.51,0,0,1-.9-2.53v-.22a4.39,4.39,0,0,1,.4-1.88,3.16,3.16,0,0,1,1.13-1.29,2.83,2.83,0,0,1,1.56-.47,2.68,2.68,0,0,1,2.15.91,4,4,0,0,1,.76,2.6v.5h-4.79a2.52,2.52,0,0,0,.61,1.69,1.93,1.93,0,0,0,1.49.65,2.11,2.11,0,0,0,1.08-.26,2.73,2.73,0,0,0,.78-.7l.74.58A3,3,0,0,1,142.45,207.82Zm-.15-6.33a1.62,1.62,0,0,0-1.23.53,2.58,2.58,0,0,0-.61,1.49H144v-.09a2.27,2.27,0,0,0-.5-1.43A1.52,1.52,0,0,0,142.3,201.49Z"/><path class="cls-1" d="M150.72,205.82a.87.87,0,0,0-.37-.76,3.47,3.47,0,0,0-1.28-.47,6.26,6.26,0,0,1-1.46-.47,2.13,2.13,0,0,1-.8-.65,1.61,1.61,0,0,1-.25-.91,1.85,1.85,0,0,1,.73-1.47,2.88,2.88,0,0,1,1.88-.6,3,3,0,0,1,2,.62,2,2,0,0,1,.75,1.59h-1.22a1.08,1.08,0,0,0-.42-.85,1.58,1.58,0,0,0-1.06-.36,1.64,1.64,0,0,0-1,.28.93.93,0,0,0-.38.76.74.74,0,0,0,.35.66,4.75,4.75,0,0,0,1.25.42,7.45,7.45,0,0,1,1.47.48,2.22,2.22,0,0,1,.83.68,1.65,1.65,0,0,1,.27,1,1.8,1.8,0,0,1-.76,1.52,3.17,3.17,0,0,1-2,.57,3.6,3.6,0,0,1-1.51-.3,2.49,2.49,0,0,1-1-.84,2,2,0,0,1-.37-1.16h1.21a1.26,1.26,0,0,0,.49,1,1.87,1.87,0,0,0,1.2.36,2,2,0,0,0,1.1-.28A.87.87,0,0,0,150.72,205.82Z"/><path class="cls-1" d="M157.62,205.82a.87.87,0,0,0-.37-.76,3.47,3.47,0,0,0-1.28-.47,6.11,6.11,0,0,1-1.46-.47,2.06,2.06,0,0,1-.8-.65,1.62,1.62,0,0,1-.26-.91,1.87,1.87,0,0,1,.74-1.47,2.86,2.86,0,0,1,1.88-.6,3,3,0,0,1,2,.62,2,2,0,0,1,.74,1.59h-1.21a1.08,1.08,0,0,0-.42-.85,1.58,1.58,0,0,0-1.06-.36,1.69,1.69,0,0,0-1,.28,1,1,0,0,0-.37.76.74.74,0,0,0,.35.66,4.75,4.75,0,0,0,1.25.42,7.45,7.45,0,0,1,1.47.48,2.22,2.22,0,0,1,.83.68,1.65,1.65,0,0,1,.27,1,1.8,1.8,0,0,1-.76,1.52,3.17,3.17,0,0,1-2,.57,3.6,3.6,0,0,1-1.51-.3,2.49,2.49,0,0,1-1-.84,2,2,0,0,1-.37-1.16h1.21a1.23,1.23,0,0,0,.49,1,1.87,1.87,0,0,0,1.2.36,2,2,0,0,0,1.1-.28A.87.87,0,0,0,157.62,205.82Z"/><path class="cls-1" d="M94.43,223.75v-9.51h2.69a4.34,4.34,0,0,1,2.19.54,3.78,3.78,0,0,1,1.48,1.56,5.12,5.12,0,0,1,.52,2.33v.61a5.09,5.09,0,0,1-.52,2.36,3.63,3.63,0,0,1-1.48,1.55,4.62,4.62,0,0,1-2.24.56Zm1.26-8.49v7.46H97a2.88,2.88,0,0,0,2.26-.9,3.77,3.77,0,0,0,.8-2.57v-.56a3.77,3.77,0,0,0-.76-2.52,2.72,2.72,0,0,0-2.16-.91Z"/><path class="cls-1" d="M106,223.88a3.09,3.09,0,0,1-2.34-.95,3.5,3.5,0,0,1-.9-2.52v-.22a4.22,4.22,0,0,1,.4-1.88,3.18,3.18,0,0,1,1.13-1.3,2.82,2.82,0,0,1,1.56-.46,2.63,2.63,0,0,1,2.14.91,3.92,3.92,0,0,1,.77,2.6v.5h-4.79a2.54,2.54,0,0,0,.61,1.69,1.92,1.92,0,0,0,1.49.64,2.16,2.16,0,0,0,1.08-.26,2.7,2.7,0,0,0,.78-.69l.74.57A3,3,0,0,1,106,223.88Zm-.15-6.34a1.63,1.63,0,0,0-1.23.53,2.64,2.64,0,0,0-.61,1.5h3.54v-.1a2.28,2.28,0,0,0-.5-1.42A1.49,1.49,0,0,0,105.8,217.54Z"/><path class="cls-1" d="M112.35,222.11l1.75-5.43h1.24l-2.54,7.07h-.92l-2.56-7.07h1.24Z"/><path class="cls-1" d="M119.35,223.88a3.09,3.09,0,0,1-2.34-.95,3.5,3.5,0,0,1-.9-2.52v-.22a4.22,4.22,0,0,1,.4-1.88,3.23,3.23,0,0,1,1.12-1.3,2.85,2.85,0,0,1,1.57-.46,2.63,2.63,0,0,1,2.14.91,3.92,3.92,0,0,1,.76,2.6v.5h-4.78a2.49,2.49,0,0,0,.61,1.69,1.9,1.9,0,0,0,1.48.64,2.17,2.17,0,0,0,1.09-.26,3,3,0,0,0,.78-.69l.73.57A3,3,0,0,1,119.35,223.88Zm-.15-6.34a1.63,1.63,0,0,0-1.23.53,2.58,2.58,0,0,0-.61,1.5h3.54v-.1a2.28,2.28,0,0,0-.5-1.42A1.52,1.52,0,0,0,119.2,217.54Z"/><path class="cls-1" d="M124.82,223.75h-1.21v-10h1.21Z"/><path class="cls-1" d="M126.43,220.15a4.18,4.18,0,0,1,.41-1.87A3.07,3.07,0,0,1,128,217a3.12,3.12,0,0,1,1.67-.45,3,3,0,0,1,2.33,1,3.8,3.8,0,0,1,.89,2.66v.08a4.22,4.22,0,0,1-.39,1.85,3.06,3.06,0,0,1-1.13,1.28,3.17,3.17,0,0,1-1.69.46,3,3,0,0,1-2.33-1,3.86,3.86,0,0,1-.89-2.65Zm1.21.14a3.07,3.07,0,0,0,.55,1.89,1.85,1.85,0,0,0,2.92,0,3.32,3.32,0,0,0,.55-2,3,3,0,0,0-.56-1.89,1.73,1.73,0,0,0-1.46-.72,1.76,1.76,0,0,0-1.45.71A3.35,3.35,0,0,0,127.64,220.29Z"/><path class="cls-1" d="M140.35,220.29a4.24,4.24,0,0,1-.74,2.6,2.36,2.36,0,0,1-2,1,2.59,2.59,0,0,1-2-.82v3.4h-1.21v-9.78h1.1l.06.78a2.49,2.49,0,0,1,2.05-.91,2.43,2.43,0,0,1,2,1,4.3,4.3,0,0,1,.74,2.67Zm-1.21-.14a3.11,3.11,0,0,0-.51-1.88,1.62,1.62,0,0,0-1.4-.7,1.77,1.77,0,0,0-1.64,1v3.37a1.77,1.77,0,0,0,1.66,1,1.63,1.63,0,0,0,1.38-.69A3.42,3.42,0,0,0,139.14,220.15Z"/><path class="cls-1" d="M143,216.68l0,.78a2.61,2.61,0,0,1,2.1-.91,2,2,0,0,1,2,1.13,2.61,2.61,0,0,1,.92-.82,2.67,2.67,0,0,1,1.33-.31q2.33,0,2.37,2.46v4.74h-1.21v-4.67a1.63,1.63,0,0,0-.35-1.13,1.53,1.53,0,0,0-1.16-.38,1.65,1.65,0,0,0-1.12.4,1.63,1.63,0,0,0-.51,1.09v4.69h-1.22v-4.63a1.35,1.35,0,0,0-1.51-1.55,1.61,1.61,0,0,0-1.62,1v5.16h-1.21v-7.07Z"/><path class="cls-1" d="M156.54,223.88a3.09,3.09,0,0,1-2.34-.95,3.5,3.5,0,0,1-.9-2.52v-.22a4.36,4.36,0,0,1,.4-1.88,3.25,3.25,0,0,1,1.13-1.3,2.82,2.82,0,0,1,1.56-.46,2.63,2.63,0,0,1,2.14.91,3.92,3.92,0,0,1,.77,2.6v.5h-4.79a2.54,2.54,0,0,0,.61,1.69,1.92,1.92,0,0,0,1.49.64,2.13,2.13,0,0,0,1.08-.26,2.7,2.7,0,0,0,.78-.69l.74.57A3,3,0,0,1,156.54,223.88Zm-.15-6.34a1.63,1.63,0,0,0-1.23.53,2.64,2.64,0,0,0-.61,1.5h3.54v-.1a2.22,2.22,0,0,0-.5-1.42A1.49,1.49,0,0,0,156.39,217.54Z"/><path class="cls-1" d="M161.84,216.68l0,.89a2.57,2.57,0,0,1,2.12-1c1.49,0,2.24.84,2.26,2.53v4.67h-1.21v-4.68a1.64,1.64,0,0,0-.35-1.13,1.43,1.43,0,0,0-1.07-.37,1.73,1.73,0,0,0-1,.32,2,2,0,0,0-.69.82v5H160.7v-7.07Z"/><path class="cls-1" d="M169.72,215v1.71H171v.93h-1.32V222a1,1,0,0,0,.17.64.75.75,0,0,0,.6.21,2.46,2.46,0,0,0,.58-.08v1a3.86,3.86,0,0,1-.93.13,1.53,1.53,0,0,1-1.22-.49,2.13,2.13,0,0,1-.41-1.39v-4.39h-1.29v-.93h1.29V215Z"/><path class="cls-1" d="M544.61,0V1.59h-.18a3.26,3.26,0,0,0-2.06.67,2.73,2.73,0,0,0-.94,1.8,2.55,2.55,0,0,1,1.92-.77,2.43,2.43,0,0,1,2,.88,3.58,3.58,0,0,1,.73,2.34,3.48,3.48,0,0,1-.4,1.68,2.92,2.92,0,0,1-1.14,1.17,3.28,3.28,0,0,1-1.66.42,3.09,3.09,0,0,1-2.43-1,4.06,4.06,0,0,1-.92-2.79V5.27a6.1,6.1,0,0,1,.58-2.74A4.26,4.26,0,0,1,541.76.7,4.83,4.83,0,0,1,544.3,0Zm-1.84,4.77a1.52,1.52,0,0,0-.83.24,1.43,1.43,0,0,0-.55.62v.58a2.63,2.63,0,0,0,.37,1.48,1.22,1.22,0,0,0,1,.53,1.18,1.18,0,0,0,1-.48,2,2,0,0,0,.38-1.24,2,2,0,0,0-.38-1.26A1.24,1.24,0,0,0,542.77,4.81Z"/><path class="cls-1" d="M547.14,2a1.86,1.86,0,0,1,.57-1.42A2,2,0,0,1,549.2,0a2.09,2.09,0,0,1,1.5.54A1.91,1.91,0,0,1,551.27,2v.47a1.86,1.86,0,0,1-.57,1.42,2.36,2.36,0,0,1-3,0,1.9,1.9,0,0,1-.57-1.45Zm1.25.5a.89.89,0,0,0,.23.63.78.78,0,0,0,.59.24.73.73,0,0,0,.58-.24.92.92,0,0,0,.22-.65V2a.91.91,0,0,0-.22-.64.83.83,0,0,0-1.17,0,.93.93,0,0,0-.23.66Zm1.19,6.47-.92-.5L553.31,1l.92.49Zm2.11-1.62a1.85,1.85,0,0,1,.57-1.42,2.36,2.36,0,0,1,3,0,1.9,1.9,0,0,1,.57,1.47v.47a1.88,1.88,0,0,1-.56,1.41,2.35,2.35,0,0,1-3,0,1.89,1.89,0,0,1-.57-1.44Zm1.25.51a.85.85,0,0,0,.24.61.74.74,0,0,0,.58.25c.54,0,.8-.29.8-.88V7.32a.85.85,0,0,0-.22-.63.76.76,0,0,0-.59-.24.78.78,0,0,0-.59.24.88.88,0,0,0-.22.65Z"/><path class="cls-2" d="M547.51,16.24c-1.44,1.44-2.81.66-4.25,2.1.76,0,1.67-.29,2.44-.29-1.44-1.44-3.1-.37-4.54-1.81a1.62,1.62,0,0,0-2.29,2.29l4.32,4.32a1.64,1.64,0,0,0,2.29,0l4.32-4.32A1.62,1.62,0,0,0,547.51,16.24Z"/><rect class="cls-3" x="531.39" y="32.74" width="25.88" height="154.53"/><rect class="cls-2" x="531.39" y="176.3" width="25.88" height="10.96"/><path class="cls-2" d="M516.17,17.9H572.5a1.34,1.34,0,0,0,0-2.68H516.17a1.34,1.34,0,0,0,0,2.68Z"/><path class="cls-1" d="M311.25,198.18l3.1,7.76,3.11-7.76h1.63v9.51h-1.25V204l.11-4-3.12,7.7h-1L310.76,200l.12,4v3.7h-1.25v-9.51Z"/><path class="cls-1" d="M325.48,207.69a2.44,2.44,0,0,1-.17-.74,2.7,2.7,0,0,1-2,.87,2.48,2.48,0,0,1-1.72-.59,1.92,1.92,0,0,1-.67-1.5,2,2,0,0,1,.84-1.71,3.94,3.94,0,0,1,2.36-.61h1.18v-.56a1.37,1.37,0,0,0-.38-1,1.51,1.51,0,0,0-1.12-.37,1.8,1.8,0,0,0-1.08.32,1,1,0,0,0-.44.79h-1.21a1.66,1.66,0,0,1,.37-1,2.53,2.53,0,0,1,1-.78,3.47,3.47,0,0,1,1.42-.29,2.82,2.82,0,0,1,1.91.61,2.23,2.23,0,0,1,.72,1.69V206a3.89,3.89,0,0,0,.25,1.55v.1Zm-2-.92a2.19,2.19,0,0,0,1.08-.29,1.77,1.77,0,0,0,.74-.77v-1.45h-1c-1.48,0-2.22.44-2.22,1.3a1.11,1.11,0,0,0,.38.89A1.42,1.42,0,0,0,323.47,206.77Z"/><path class="cls-1" d="M331.81,201.71a3.64,3.64,0,0,0-.6-.05,1.59,1.59,0,0,0-1.61,1v5h-1.21v-7.06h1.18l0,.81a1.88,1.88,0,0,1,1.68-.95,1.25,1.25,0,0,1,.54.09Z"/><path class="cls-1" d="M334.89,204.42l-.76.79v2.48h-1.2v-10h1.2v6.07l.65-.78,2.2-2.32h1.47l-2.75,3,3.07,4.11h-1.42Z"/><path class="cls-1" d="M342.5,207.82a3.08,3.08,0,0,1-2.34-.94,3.51,3.51,0,0,1-.9-2.53v-.22a4.39,4.39,0,0,1,.4-1.88,3.16,3.16,0,0,1,1.13-1.29,2.83,2.83,0,0,1,1.56-.47,2.66,2.66,0,0,1,2.14.91,3.93,3.93,0,0,1,.77,2.6v.5h-4.79a2.52,2.52,0,0,0,.61,1.69,1.93,1.93,0,0,0,1.49.65,2.13,2.13,0,0,0,1.08-.26,2.73,2.73,0,0,0,.78-.7l.74.58A3,3,0,0,1,342.5,207.82Zm-.15-6.33a1.59,1.59,0,0,0-1.23.53,2.58,2.58,0,0,0-.61,1.49h3.54v-.09a2.27,2.27,0,0,0-.5-1.43A1.52,1.52,0,0,0,342.35,201.49Z"/><path class="cls-1" d="M348.3,198.91v1.72h1.32v.93H348.3V206a1,1,0,0,0,.17.63.72.72,0,0,0,.6.22,3.25,3.25,0,0,0,.58-.08v1a3.42,3.42,0,0,1-.93.13,1.49,1.49,0,0,1-1.22-.49,2.06,2.06,0,0,1-.41-1.39v-4.38H345.8v-.93h1.29v-1.72Z"/><path class="cls-1" d="M351,198.75a.73.73,0,0,1,.18-.5.69.69,0,0,1,.53-.2.7.7,0,0,1,.54.2.73.73,0,0,1,.18.5.69.69,0,0,1-.18.49.7.7,0,0,1-.54.2.65.65,0,0,1-.71-.69Zm1.31,8.94h-1.21v-7.06h1.21Z"/><path class="cls-1" d="M355.42,200.63l0,.88a2.56,2.56,0,0,1,2.11-1c1.5,0,2.25.85,2.26,2.53v4.67h-1.21V203a1.59,1.59,0,0,0-.35-1.13,1.35,1.35,0,0,0-1.06-.37,1.75,1.75,0,0,0-1,.31,2.25,2.25,0,0,0-.69.83v5h-1.21v-7.06Z"/><path class="cls-1" d="M361.37,204.1a4.15,4.15,0,0,1,.76-2.63,2.46,2.46,0,0,1,2-1,2.42,2.42,0,0,1,2,.92l.06-.78h1.11v6.89a2.83,2.83,0,0,1-.82,2.16,3,3,0,0,1-2.18.79,3.62,3.62,0,0,1-1.5-.32,2.58,2.58,0,0,1-1.11-.9l.62-.72a2.38,2.38,0,0,0,1.9,1,1.72,1.72,0,0,0,1.87-1.9V207a2.49,2.49,0,0,1-2,.83,2.43,2.43,0,0,1-2-1A4.35,4.35,0,0,1,361.37,204.1Zm1.21.14a3.25,3.25,0,0,0,.49,1.88,1.61,1.61,0,0,0,1.37.68,1.76,1.76,0,0,0,1.68-1v-3.23a1.79,1.79,0,0,0-1.66-1,1.6,1.6,0,0,0-1.38.69A3.43,3.43,0,0,0,362.58,204.24Z"/><path class="cls-1" d="M647.59,0V1.59h-.19a3.26,3.26,0,0,0-2.06.67,2.68,2.68,0,0,0-.93,1.8,2.53,2.53,0,0,1,1.91-.77,2.42,2.42,0,0,1,2,.88A3.58,3.58,0,0,1,649,6.51a3.48,3.48,0,0,1-.4,1.68,2.89,2.89,0,0,1-1.13,1.17,3.31,3.31,0,0,1-1.67.42,3.06,3.06,0,0,1-2.42-1,4,4,0,0,1-.93-2.79V5.27a6.11,6.11,0,0,1,.59-2.74A4.26,4.26,0,0,1,644.74.7,4.8,4.8,0,0,1,647.27,0Zm-1.84,4.77a1.47,1.47,0,0,0-.83.24,1.37,1.37,0,0,0-.55.62v.58a2.55,2.55,0,0,0,.37,1.48,1.22,1.22,0,0,0,1,.53,1.19,1.19,0,0,0,1-.48,2,2,0,0,0,.37-1.24,1.93,1.93,0,0,0-.38-1.26A1.24,1.24,0,0,0,645.75,4.81Z"/><path class="cls-1" d="M650.12,2a1.85,1.85,0,0,1,.56-1.42A2,2,0,0,1,652.17,0a2.1,2.1,0,0,1,1.51.54A1.94,1.94,0,0,1,654.24,2v.47a1.89,1.89,0,0,1-.56,1.42,2.12,2.12,0,0,1-1.49.53,2.09,2.09,0,0,1-1.5-.54,1.9,1.9,0,0,1-.57-1.45Zm1.25.5a.93.93,0,0,0,.22.63.8.8,0,0,0,.6.24.75.75,0,0,0,.58-.24,1,1,0,0,0,.21-.65V2a1,1,0,0,0-.21-.64.77.77,0,0,0-.6-.24.75.75,0,0,0-.58.24.92.92,0,0,0-.22.66Zm1.19,6.47-.92-.5L656.28,1l.92.49Zm2.1-1.62a1.82,1.82,0,0,1,.58-1.42,2.08,2.08,0,0,1,1.49-.54,2.12,2.12,0,0,1,1.5.53,1.9,1.9,0,0,1,.57,1.47v.47a1.88,1.88,0,0,1-.56,1.41,2.37,2.37,0,0,1-3,0,1.89,1.89,0,0,1-.57-1.44Zm1.26.51a.89.89,0,0,0,.23.61.76.76,0,0,0,.59.25c.53,0,.8-.29.8-.88V7.32a.85.85,0,0,0-.23-.63.74.74,0,0,0-.58-.24.76.76,0,0,0-.59.24.88.88,0,0,0-.22.65Z"/><path class="cls-2" d="M650.49,16.24c-1.44,1.44-2.82.66-4.26,2.1.77,0,1.68-.29,2.44-.29-1.44-1.44-3.09-.37-4.54-1.81a1.62,1.62,0,0,0-2.29,2.29l4.32,4.32a1.65,1.65,0,0,0,2.3,0l4.32-4.32A1.62,1.62,0,0,0,650.49,16.24Z"/><rect class="cls-3" x="634.37" y="32.74" width="25.88" height="154.53"/><rect class="cls-2" x="634.37" y="177.91" width="25.88" height="9.36"/><path class="cls-2" d="M619.15,17.9h56.33a1.34,1.34,0,0,0,0-2.68H619.15a1.34,1.34,0,0,0,0,2.68Z"/><path class="cls-1" d="M532,203.45a5.9,5.9,0,0,1-2.35-1.14,2.16,2.16,0,0,1-.73-1.67,2.29,2.29,0,0,1,.89-1.85,3.53,3.53,0,0,1,2.34-.74,4,4,0,0,1,1.75.38,3,3,0,0,1,1.19,1,2.7,2.7,0,0,1,.42,1.46h-1.26a1.75,1.75,0,0,0-.55-1.36,2.24,2.24,0,0,0-1.55-.49,2.31,2.31,0,0,0-1.45.4,1.41,1.41,0,0,0-.52,1.14,1.21,1.21,0,0,0,.5,1,4.62,4.62,0,0,0,1.67.74,7.53,7.53,0,0,1,1.86.74,2.71,2.71,0,0,1,1,.93,2.37,2.37,0,0,1,.33,1.26,2.23,2.23,0,0,1-.91,1.86,3.85,3.85,0,0,1-2.41.69,4.42,4.42,0,0,1-1.82-.37,3.05,3.05,0,0,1-1.31-1,2.51,2.51,0,0,1-.46-1.49h1.26a1.66,1.66,0,0,0,.63,1.37,2.71,2.71,0,0,0,1.7.5,2.49,2.49,0,0,0,1.53-.41,1.32,1.32,0,0,0,.53-1.1,1.3,1.3,0,0,0-.49-1.08A5.59,5.59,0,0,0,532,203.45Z"/><path class="cls-1" d="M541.33,207.69a2.44,2.44,0,0,1-.17-.74,2.71,2.71,0,0,1-2,.87,2.48,2.48,0,0,1-1.72-.59,1.89,1.89,0,0,1-.67-1.5,2,2,0,0,1,.84-1.71,3.94,3.94,0,0,1,2.36-.61h1.18v-.56a1.37,1.37,0,0,0-.38-1,1.53,1.53,0,0,0-1.12-.37,1.8,1.8,0,0,0-1.08.32,1,1,0,0,0-.44.79h-1.21a1.66,1.66,0,0,1,.37-1,2.53,2.53,0,0,1,1-.78,3.45,3.45,0,0,1,1.41-.29,2.83,2.83,0,0,1,1.92.61,2.23,2.23,0,0,1,.72,1.69V206a4.13,4.13,0,0,0,.24,1.55v.1Zm-2-.92a2.19,2.19,0,0,0,1.08-.29,1.77,1.77,0,0,0,.74-.77v-1.45h-.95c-1.48,0-2.22.44-2.22,1.3a1.11,1.11,0,0,0,.38.89A1.47,1.47,0,0,0,539.32,206.77Z"/><path class="cls-1" d="M545.55,207.69h-1.21v-10h1.21Z"/><path class="cls-1" d="M550.42,207.82a3.08,3.08,0,0,1-2.34-.94,3.51,3.51,0,0,1-.9-2.53v-.22a4.22,4.22,0,0,1,.4-1.88,3.09,3.09,0,0,1,1.13-1.29,2.83,2.83,0,0,1,1.56-.47,2.66,2.66,0,0,1,2.14.91,3.93,3.93,0,0,1,.77,2.6v.5h-4.79a2.52,2.52,0,0,0,.61,1.69,1.91,1.91,0,0,0,1.48.65,2.07,2.07,0,0,0,1.09-.27,2.68,2.68,0,0,0,.78-.69l.74.58A3,3,0,0,1,550.42,207.82Zm-.15-6.33A1.59,1.59,0,0,0,549,202a2.58,2.58,0,0,0-.61,1.49H552v-.09a2.33,2.33,0,0,0-.5-1.43A1.5,1.5,0,0,0,550.27,201.49Z"/><path class="cls-1" d="M558.69,205.82a.87.87,0,0,0-.37-.76,3.61,3.61,0,0,0-1.29-.47,6.16,6.16,0,0,1-1.45-.47,2,2,0,0,1-.8-.66,1.56,1.56,0,0,1-.26-.9,1.84,1.84,0,0,1,.74-1.47,2.86,2.86,0,0,1,1.88-.6,2.93,2.93,0,0,1,1.94.62,2,2,0,0,1,.75,1.59h-1.21a1.1,1.1,0,0,0-.42-.86,1.63,1.63,0,0,0-1.06-.35,1.67,1.67,0,0,0-1,.28.89.89,0,0,0-.37.75.7.7,0,0,0,.35.66,4.23,4.23,0,0,0,1.25.43,6.56,6.56,0,0,1,1.46.48,2.1,2.1,0,0,1,.84.68,1.65,1.65,0,0,1,.27,1,1.83,1.83,0,0,1-.76,1.52,3.18,3.18,0,0,1-2,.57,3.59,3.59,0,0,1-1.5-.3,2.43,2.43,0,0,1-1-.84,2,2,0,0,1-.37-1.16h1.21a1.25,1.25,0,0,0,.48,1,1.9,1.9,0,0,0,1.2.36,2,2,0,0,0,1.1-.28A.85.85,0,0,0,558.69,205.82Z"/><path class="cls-1" d="M751,6.07h1.07V7.59H751V9.65h-1.89V7.59h-3.9l-.09-1.19,4-6.26H751Zm-4,0h2.1V2.71l-.13.22Z"/><path class="cls-1" d="M753.09,2a1.86,1.86,0,0,1,.57-1.42A2,2,0,0,1,755.15,0a2.09,2.09,0,0,1,1.5.54A1.91,1.91,0,0,1,757.22,2v.47a1.86,1.86,0,0,1-.57,1.42,2.36,2.36,0,0,1-3,0,1.9,1.9,0,0,1-.57-1.45Zm1.25.5a.89.89,0,0,0,.23.63.78.78,0,0,0,.59.24.73.73,0,0,0,.58-.24.92.92,0,0,0,.22-.65V2a.91.91,0,0,0-.22-.64.83.83,0,0,0-1.17,0,.93.93,0,0,0-.23.66Zm1.19,6.47-.92-.5L759.26,1l.92.49Zm2.11-1.62a1.85,1.85,0,0,1,.57-1.42,2.36,2.36,0,0,1,3,0,1.9,1.9,0,0,1,.57,1.47v.47a1.88,1.88,0,0,1-.56,1.41,2.35,2.35,0,0,1-3,0,1.89,1.89,0,0,1-.57-1.44Zm1.25.51a.85.85,0,0,0,.24.61.74.74,0,0,0,.58.25c.54,0,.8-.29.8-.88V7.32a.85.85,0,0,0-.22-.63.85.85,0,0,0-1.18,0,.93.93,0,0,0-.22.65Z"/><path class="cls-2" d="M753.46,16.24c-1.44,1.44-2.81.66-4.25,2.1.76,0,1.67-.29,2.44-.29-1.44-1.44-3.1-.37-4.54-1.81a1.62,1.62,0,0,0-2.29,2.29l4.32,4.32a1.64,1.64,0,0,0,2.29,0l4.32-4.32A1.62,1.62,0,0,0,753.46,16.24Z"/><rect class="cls-3" x="737.35" y="32.74" width="25.88" height="154.53"/><rect class="cls-2" x="737.35" y="180.98" width="25.88" height="6.29"/><path class="cls-2" d="M722.12,17.9h56.33a1.34,1.34,0,0,0,0-2.68H722.12a1.34,1.34,0,0,0,0,2.68Z"/><path class="cls-1" d="M737.05,207.69h-1.26V203.3H731v4.39h-1.26v-9.51H731v4.09h4.79v-4.09h1.26Z"/><path class="cls-1" d="M743.45,207a2.54,2.54,0,0,1-2.07.83,2.22,2.22,0,0,1-1.72-.65,2.91,2.91,0,0,1-.6-1.95v-4.59h1.21v4.56c0,1.07.44,1.61,1.31,1.61a1.81,1.81,0,0,0,1.84-1v-5.14h1.21v7.06h-1.15Z"/><path class="cls-1" d="M747.6,200.63l0,.78a2.62,2.62,0,0,1,2.1-.92,2,2,0,0,1,2,1.14,2.61,2.61,0,0,1,.92-.82,2.67,2.67,0,0,1,1.33-.32c1.55,0,2.34.82,2.37,2.47v4.73h-1.21V203a1.61,1.61,0,0,0-.35-1.13,1.49,1.49,0,0,0-1.16-.38,1.6,1.6,0,0,0-1.12.4A1.62,1.62,0,0,0,752,203v4.69H750.8v-4.63a1.35,1.35,0,0,0-1.51-1.54,1.61,1.61,0,0,0-1.62,1v5.16h-1.21v-7.06Z"/><path class="cls-1" d="M762.55,207.69a2.79,2.79,0,0,1-.17-.74,2.7,2.7,0,0,1-2,.87,2.45,2.45,0,0,1-1.71-.59,1.89,1.89,0,0,1-.67-1.5,2,2,0,0,1,.84-1.71,3.92,3.92,0,0,1,2.36-.61h1.17v-.56a1.37,1.37,0,0,0-.37-1,1.55,1.55,0,0,0-1.12-.37,1.85,1.85,0,0,0-1.09.32,1,1,0,0,0-.43.79h-1.22a1.68,1.68,0,0,1,.38-1,2.53,2.53,0,0,1,1-.78,3.45,3.45,0,0,1,1.41-.29,2.82,2.82,0,0,1,1.91.61,2.2,2.2,0,0,1,.72,1.69V206a4.07,4.07,0,0,0,.25,1.55v.1Zm-2-.92a2.19,2.19,0,0,0,1.08-.29,1.74,1.74,0,0,0,.73-.77v-1.45h-.94c-1.48,0-2.22.44-2.22,1.3a1.08,1.08,0,0,0,.38.89A1.4,1.4,0,0,0,760.55,206.77Z"/><path class="cls-1" d="M766.61,200.63l0,.88a2.56,2.56,0,0,1,2.11-1c1.5,0,2.25.85,2.27,2.53v4.67h-1.21V203a1.64,1.64,0,0,0-.35-1.13,1.39,1.39,0,0,0-1.07-.37,1.72,1.72,0,0,0-1,.31,2.07,2.07,0,0,0-.69.83v5h-1.21v-7.06Z"/><path class="cls-1" d="M723.56,219.9h-2.23v3.85h-1.27v-9.51h3.15a3.74,3.74,0,0,1,2.48.73,2.64,2.64,0,0,1,.86,2.13,2.52,2.52,0,0,1-.48,1.54,2.9,2.9,0,0,1-1.34,1l2.24,4v.08h-1.35Zm-2.23-1h1.92a2.19,2.19,0,0,0,1.49-.48,1.64,1.64,0,0,0,.55-1.3,1.71,1.71,0,0,0-.53-1.35,2.2,2.2,0,0,0-1.51-.48h-1.92Z"/><path class="cls-1" d="M731.05,223.88a3.09,3.09,0,0,1-2.34-.95,3.5,3.5,0,0,1-.9-2.52v-.22a4.36,4.36,0,0,1,.4-1.88,3.25,3.25,0,0,1,1.13-1.3,2.82,2.82,0,0,1,1.56-.46,2.63,2.63,0,0,1,2.14.91,3.92,3.92,0,0,1,.77,2.6v.5H729a2.54,2.54,0,0,0,.61,1.69,1.92,1.92,0,0,0,1.49.64,2.13,2.13,0,0,0,1.08-.26,2.7,2.7,0,0,0,.78-.69l.74.57A3,3,0,0,1,731.05,223.88Zm-.15-6.34a1.63,1.63,0,0,0-1.23.53,2.64,2.64,0,0,0-.61,1.5h3.54v-.1a2.28,2.28,0,0,0-.5-1.42A1.49,1.49,0,0,0,730.9,217.54Z"/><path class="cls-1" d="M739.32,221.87a.87.87,0,0,0-.37-.76,3.47,3.47,0,0,0-1.28-.47,5.69,5.69,0,0,1-1.46-.47,2.06,2.06,0,0,1-.8-.65,1.56,1.56,0,0,1-.26-.9,1.84,1.84,0,0,1,.74-1.47,2.88,2.88,0,0,1,1.88-.6,2.92,2.92,0,0,1,2,.62,2,2,0,0,1,.75,1.59h-1.22a1.09,1.09,0,0,0-.42-.86,1.58,1.58,0,0,0-1.06-.36,1.64,1.64,0,0,0-1,.29.9.9,0,0,0-.38.75.74.74,0,0,0,.35.66,4.1,4.1,0,0,0,1.25.42,6.8,6.8,0,0,1,1.47.49,2.11,2.11,0,0,1,.83.67,1.7,1.7,0,0,1,.27,1,1.78,1.78,0,0,1-.76,1.51,3.11,3.11,0,0,1-2,.58,3.6,3.6,0,0,1-1.51-.3,2.49,2.49,0,0,1-1-.84,2.08,2.08,0,0,1-.37-1.17h1.21a1.2,1.2,0,0,0,.49,1,1.87,1.87,0,0,0,1.2.36,1.93,1.93,0,0,0,1.1-.28A.85.85,0,0,0,739.32,221.87Z"/><path class="cls-1" d="M741.79,220.15a4.18,4.18,0,0,1,.4-1.87,3,3,0,0,1,2.8-1.73,3,3,0,0,1,2.34,1,3.85,3.85,0,0,1,.89,2.66v.08a4.09,4.09,0,0,1-.4,1.85,3,3,0,0,1-1.13,1.28,3.16,3.16,0,0,1-1.68.46,3,3,0,0,1-2.33-1,3.81,3.81,0,0,1-.89-2.65Zm1.21.14a3,3,0,0,0,.55,1.89,1.85,1.85,0,0,0,2.92,0,3.32,3.32,0,0,0,.54-2,3,3,0,0,0-.55-1.89,1.76,1.76,0,0,0-1.47-.72,1.74,1.74,0,0,0-1.44.71A3.28,3.28,0,0,0,743,220.29Z"/><path class="cls-1" d="M754.1,223.05a2.57,2.57,0,0,1-2.07.83,2.17,2.17,0,0,1-1.72-.66,2.8,2.8,0,0,1-.6-1.94v-4.6h1.21v4.56c0,1.08.43,1.61,1.3,1.61a1.81,1.81,0,0,0,1.85-1v-5.14h1.2v7.07h-1.15Z"/><path class="cls-1" d="M760.53,217.76a3.78,3.78,0,0,0-.6,0,1.58,1.58,0,0,0-1.61,1v5h-1.21v-7.07h1.18l0,.82a1.85,1.85,0,0,1,1.68-.95,1.28,1.28,0,0,1,.54.09Z"/><path class="cls-1" d="M765.75,221.87a.87.87,0,0,0-.37-.76,3.47,3.47,0,0,0-1.28-.47,5.69,5.69,0,0,1-1.46-.47,2.06,2.06,0,0,1-.8-.65,1.56,1.56,0,0,1-.26-.9,1.84,1.84,0,0,1,.74-1.47,2.86,2.86,0,0,1,1.88-.6,2.92,2.92,0,0,1,1.95.62,2,2,0,0,1,.74,1.59h-1.21a1.09,1.09,0,0,0-.42-.86,1.58,1.58,0,0,0-1.06-.36,1.64,1.64,0,0,0-1,.29.9.9,0,0,0-.38.75.74.74,0,0,0,.35.66,4.1,4.1,0,0,0,1.25.42,6.8,6.8,0,0,1,1.47.49,2.11,2.11,0,0,1,.83.67,1.7,1.7,0,0,1,.27,1,1.78,1.78,0,0,1-.76,1.51,3.11,3.11,0,0,1-2,.58,3.6,3.6,0,0,1-1.51-.3,2.49,2.49,0,0,1-1-.84,2.08,2.08,0,0,1-.37-1.17h1.21a1.2,1.2,0,0,0,.49,1,1.87,1.87,0,0,0,1.2.36,1.93,1.93,0,0,0,1.1-.28A.85.85,0,0,0,765.75,221.87Z"/><path class="cls-1" d="M771.47,223.88a3.09,3.09,0,0,1-2.34-.95,3.5,3.5,0,0,1-.9-2.52v-.22a4.22,4.22,0,0,1,.4-1.88,3.23,3.23,0,0,1,1.12-1.3,2.85,2.85,0,0,1,1.57-.46,2.63,2.63,0,0,1,2.14.91,3.92,3.92,0,0,1,.76,2.6v.5h-4.78a2.49,2.49,0,0,0,.61,1.69,1.9,1.9,0,0,0,1.48.64,2.17,2.17,0,0,0,1.09-.26,2.79,2.79,0,0,0,.77-.69l.74.57A3,3,0,0,1,771.47,223.88Zm-.15-6.34a1.63,1.63,0,0,0-1.23.53,2.58,2.58,0,0,0-.61,1.5H773v-.1a2.28,2.28,0,0,0-.5-1.42A1.52,1.52,0,0,0,771.32,217.54Z"/><path class="cls-1" d="M779.74,221.87a.9.9,0,0,0-.37-.76,3.61,3.61,0,0,0-1.29-.47,5.6,5.6,0,0,1-1.45-.47,2.06,2.06,0,0,1-.8-.65,1.56,1.56,0,0,1-.26-.9,1.86,1.86,0,0,1,.73-1.47,3.31,3.31,0,0,1,3.83,0,2,2,0,0,1,.75,1.59h-1.21a1.07,1.07,0,0,0-.43-.86,1.57,1.57,0,0,0-1.06-.36,1.66,1.66,0,0,0-1,.29.89.89,0,0,0-.37.75.72.72,0,0,0,.35.66,4,4,0,0,0,1.25.42,6.52,6.52,0,0,1,1.46.49,2.15,2.15,0,0,1,.84.67,1.7,1.7,0,0,1,.27,1,1.81,1.81,0,0,1-.76,1.51,3.14,3.14,0,0,1-2,.58,3.59,3.59,0,0,1-1.5-.3,2.37,2.37,0,0,1-1-.84,2,2,0,0,1-.37-1.17h1.21a1.22,1.22,0,0,0,.48,1,2.24,2.24,0,0,0,2.3.08A.84.84,0,0,0,779.74,221.87Z"/><path class="cls-1" d="M852.27,7.18a2.41,2.41,0,0,1-1.73.72,2.55,2.55,0,0,1-2-.86,3.46,3.46,0,0,1-.75-2.34,3.65,3.65,0,0,1,.4-1.71,3.12,3.12,0,0,1,1.14-1.22A3.17,3.17,0,0,1,851,1.34a3,3,0,0,1,2.81,1.82,4.79,4.79,0,0,1,.41,2v.7A5.52,5.52,0,0,1,853,9.62a4.53,4.53,0,0,1-3.35,1.45h-.47V9.5h.42Q852.06,9.39,852.27,7.18ZM851,6.46a1.29,1.29,0,0,0,.78-.24,1.48,1.48,0,0,0,.5-.56V4.88a2.62,2.62,0,0,0-.36-1.49,1.15,1.15,0,0,0-1-.53,1.11,1.11,0,0,0-.94.52,2.24,2.24,0,0,0-.36,1.3A2.2,2.2,0,0,0,850,6,1.17,1.17,0,0,0,851,6.46Z"/><path class="cls-1" d="M855.5,3.3a1.86,1.86,0,0,1,.57-1.42,2,2,0,0,1,1.49-.55,2.09,2.09,0,0,1,1.5.54,1.92,1.92,0,0,1,.57,1.46V3.8a1.86,1.86,0,0,1-.57,1.42,2.06,2.06,0,0,1-1.49.53,2.09,2.09,0,0,1-1.5-.53,1.92,1.92,0,0,1-.57-1.46Zm1.26.5a.88.88,0,0,0,.22.63.78.78,0,0,0,.59.24.73.73,0,0,0,.58-.24.92.92,0,0,0,.22-.65V3.3a.88.88,0,0,0-.22-.63.72.72,0,0,0-.59-.25.75.75,0,0,0-.58.24.93.93,0,0,0-.22.67Zm1.18,6.47-.92-.5,4.65-7.43.92.49Zm2.11-1.62a1.86,1.86,0,0,1,.57-1.42,2.1,2.1,0,0,1,1.49-.54,2.13,2.13,0,0,1,1.5.53,1.93,1.93,0,0,1,.57,1.47v.47a1.88,1.88,0,0,1-.56,1.41,2.35,2.35,0,0,1-3,0,1.89,1.89,0,0,1-.57-1.44Zm1.25.51a.85.85,0,0,0,.24.61.75.75,0,0,0,.58.26c.54,0,.8-.3.8-.89V8.65A.88.88,0,0,0,862.7,8a.85.85,0,0,0-1.18,0,.94.94,0,0,0-.22.65Z"/><path class="cls-2" d="M856.44,17.57c-1.44,1.44-2.82.66-4.26,2.1.77,0,1.68-.29,2.44-.29-1.44-1.44-3.09-.37-4.53-1.81a1.62,1.62,0,0,0-2.3,2.29l4.33,4.32a1.64,1.64,0,0,0,2.29,0l4.32-4.32A1.62,1.62,0,0,0,856.44,17.57Z"/><rect class="cls-3" x="840.32" y="34.07" width="25.88" height="154.53"/><rect class="cls-2" x="840.32" y="177.91" width="25.88" height="10.69"/><path class="cls-2" d="M825.1,19.23h56.33a1.34,1.34,0,0,0,0-2.67H825.1a1.34,1.34,0,0,0,0,2.67Z"/><path class="cls-1" d="M953.1,207.69h-1.25v-9.51h1.25Z"/><path class="cls-1" d="M961.78,199.21h-3.06v8.48h-1.25v-8.48h-3.05v-1h7.36Z"/><path class="cls-1" d="M952.75,5.39h1A1.43,1.43,0,0,0,954.82,5a1.32,1.32,0,0,0,.34-1,1.15,1.15,0,0,0-.34-.9,1.34,1.34,0,0,0-.94-.32,1.39,1.39,0,0,0-.91.3.93.93,0,0,0-.37.77h-1.88a2.29,2.29,0,0,1,.4-1.33,2.64,2.64,0,0,1,1.12-.93,3.77,3.77,0,0,1,1.59-.33,3.57,3.57,0,0,1,2.37.72,2.47,2.47,0,0,1,.85,2,2,2,0,0,1-.4,1.2,2.46,2.46,0,0,1-1,.84,2.44,2.44,0,0,1,1.2.87,2.34,2.34,0,0,1,.39,1.36,2.52,2.52,0,0,1-.92,2,3.72,3.72,0,0,1-2.45.76,3.54,3.54,0,0,1-2.33-.75,2.46,2.46,0,0,1-.9-2h1.89a1.1,1.1,0,0,0,.4.88,1.47,1.47,0,0,0,1,.34,1.45,1.45,0,0,0,1-.36,1.19,1.19,0,0,0,.38-.94c0-.95-.52-1.42-1.56-1.42h-1Z"/><path class="cls-1" d="M958.47,3.3A1.86,1.86,0,0,1,959,1.88a2,2,0,0,1,1.49-.55,2.1,2.1,0,0,1,1.51.54,2,2,0,0,1,.56,1.46V3.8A1.89,1.89,0,0,1,962,5.22a2.37,2.37,0,0,1-3,0,1.93,1.93,0,0,1-.58-1.46Zm1.26.5a.88.88,0,0,0,.22.63.78.78,0,0,0,.6.24.75.75,0,0,0,.58-.24,1,1,0,0,0,.21-.65V3.3a.92.92,0,0,0-.21-.63.74.74,0,0,0-.6-.25.75.75,0,0,0-.58.24.93.93,0,0,0-.22.67Zm1.19,6.47-.92-.5,4.64-7.43.92.49ZM963,8.65a1.83,1.83,0,0,1,.58-1.42,2.08,2.08,0,0,1,1.49-.54,2.16,2.16,0,0,1,1.5.53,1.93,1.93,0,0,1,.57,1.47v.47a1.85,1.85,0,0,1-.57,1.41,2.05,2.05,0,0,1-1.49.54,2.1,2.1,0,0,1-1.51-.54A1.89,1.89,0,0,1,963,9.13Zm1.26.51a.84.84,0,0,0,.23.61.77.77,0,0,0,.59.26c.53,0,.8-.3.8-.89V8.65a.89.89,0,0,0-.23-.63.74.74,0,0,0-.58-.24.76.76,0,0,0-.59.24.9.9,0,0,0-.22.65Z"/><path class="cls-2" d="M959.41,17.57c-1.44,1.44-2.81.66-4.25,2.1.76,0,1.67-.29,2.44-.29-1.44-1.44-3.1-.37-4.54-1.81a1.62,1.62,0,0,0-2.29,2.29l4.32,4.32a1.64,1.64,0,0,0,2.29,0l4.33-4.32A1.62,1.62,0,0,0,959.41,17.57Z"/><rect class="cls-3" x="943.3" y="34.07" width="25.88" height="154.53"/><rect class="cls-2" x="943.3" y="184.12" width="25.88" height="4.48"/><path class="cls-2" d="M928.07,19.23H984.4a1.34,1.34,0,0,0,0-2.67H928.07a1.34,1.34,0,0,0,0,2.67Z"/></svg>