<svg id="Layer_1" data-name="Layer 1" xmlns="http://www.w3.org/2000/svg" viewBox="0 0 155 60"><defs><style>.cls-1{fill:#fc0;}</style></defs><title>Amity M Assects</title><path class="cls-1" d="M29.54,57.61a40.14,40.14,0,0,1-7.25-3.27c.7-.87,2-3.13-.36-6.07,0,0-1.81,3-.71,5.42a33.72,33.72,0,0,1-4.2-3c.41-.4,2.73-2.93-.07-6.4,0,0-2.14,3.6-.35,6a24.82,24.82,0,0,1-4.79-5.6c.68-.31,3.5-1.86,2.21-6,0,0-3.21,2.49-2.56,5.36a19,19,0,0,1-1.84-4.36c-.17-.58-.3-1.15-.43-1.72.9-.19,3.72-1.09,3.52-5.17,0,0-3.23,1.38-3.76,3.94a28.93,28.93,0,0,1-.41-6.48c1,.14,3.33.08,4.51-3.07,0,0-3,0-4.41,1.78a30.28,30.28,0,0,1,1.08-5.74c.82.32,3.32,1,5.2-2.12,0,0-3.26-.62-4.92,1.17a35.93,35.93,0,0,1,2.44-5.83c.88.51,3.07,1.33,5.34-1.18,0,0-2.71-1.08-4.68,0a29.86,29.86,0,0,1,2.62-3.89c.34-.42.71-.82,1.08-1.21.56.39,3,1.87,5.64-1,0,0-2.53-1-4.47-.13a27.6,27.6,0,0,1,3.76-2.83c.8.49,3.08,1.49,5.44-1.12a8,8,0,0,0-2.59-.49,23.78,23.78,0,0,1,2.22-1l-.35-.94a31.49,31.49,0,0,0-8.68,5.2c.69-1.18,1.53-3.67-1.28-6.48,0,0-2.48,5.28.6,7.09a23.2,23.2,0,0,0-2.15,2.27,26.92,26.92,0,0,0-1.82,2.5c.39-1.57.21-3.74-2.15-6.1,0,0-3,6.32.77,8.42A35.78,35.78,0,0,0,10,19.45c-.1-1.51-.84-3.33-3.28-5,0,0-1.65,6.59,2.22,8.06a36.52,36.52,0,0,0-1,4.28c-.28-1.55-1.29-3.38-4.21-4.63,0,0-.43,7,3.89,7.56a31,31,0,0,0,.14,5.68C6.94,33.75,5.12,31.8,1,31.8c0,0,2.6,7.2,7.13,6,.15.73.33,1.47.53,2.21s.41,1.27.65,1.89C8,40.74,5.86,39.8,2.42,40.7c0,0,4.23,6.15,8.27,4.09A23.87,23.87,0,0,0,13.82,49c-1.64-.66-4-.8-7,1.34,0,0,6.16,4.17,9.17.81a35.65,35.65,0,0,0,3,2.31c-1.73-.29-4,.08-6.45,2.7,0,0,6.83,2.86,9.14-1a40.53,40.53,0,0,0,7.57,3.43Z"/><path class="cls-1" d="M125.46,57.61a40.14,40.14,0,0,0,7.25-3.27c-.7-.87-2-3.13.36-6.07,0,0,1.81,3,.71,5.42a33.72,33.72,0,0,0,4.2-3c-.41-.4-2.73-2.93.07-6.4,0,0,2.14,3.6.35,6a24.82,24.82,0,0,0,4.79-5.6c-.68-.31-3.5-1.86-2.21-6,0,0,3.21,2.49,2.56,5.36a19,19,0,0,0,1.84-4.36c.17-.58.3-1.15.43-1.72-.9-.19-3.72-1.09-3.52-5.17,0,0,3.23,1.38,3.76,3.94a28.93,28.93,0,0,0,.41-6.48c-1,.14-3.33.08-4.51-3.07,0,0,3,0,4.41,1.78a31.09,31.09,0,0,0-1.08-5.74c-.82.32-3.32,1-5.2-2.12,0,0,3.26-.62,4.92,1.17a35.93,35.93,0,0,0-2.44-5.83c-.88.51-3.07,1.33-5.34-1.18,0,0,2.71-1.08,4.68,0a29.86,29.86,0,0,0-2.62-3.89c-.34-.42-.71-.82-1.08-1.21-.56.39-3,1.87-5.64-1,0,0,2.53-1,4.47-.13a28.17,28.17,0,0,0-3.75-2.83c-.81.49-3.08,1.49-5.45-1.12a8,8,0,0,1,2.59-.49,23.78,23.78,0,0,0-2.22-1l.35-.94a31.49,31.49,0,0,1,8.68,5.2c-.69-1.18-1.53-3.67,1.28-6.48,0,0,2.48,5.28-.6,7.09a23.2,23.2,0,0,1,2.15,2.27,26.92,26.92,0,0,1,1.82,2.5c-.39-1.57-.21-3.74,2.15-6.1,0,0,3,6.32-.77,8.42a35.78,35.78,0,0,1,1.79,3.84c.1-1.51.84-3.33,3.28-5,0,0,1.65,6.59-2.22,8.06a36.52,36.52,0,0,1,1,4.28c.28-1.55,1.29-3.38,4.21-4.63,0,0,.43,7-3.89,7.56a31,31,0,0,1-.14,5.68c.8-1.68,2.62-3.63,6.75-3.63,0,0-2.6,7.2-7.13,6-.15.73-.33,1.47-.53,2.21s-.41,1.27-.65,1.89c1.29-1.18,3.44-2.12,6.88-1.22,0,0-4.23,6.15-8.27,4.09A23.87,23.87,0,0,1,141.18,49c1.64-.66,4-.8,7,1.34,0,0-6.16,4.17-9.17.81a35.65,35.65,0,0,1-3,2.31c1.73-.29,4,.08,6.45,2.7,0,0-6.83,2.86-9.14-1a40.53,40.53,0,0,1-7.57,3.43Z"/></svg>