<svg id="Layer_1" data-name="Layer 1" xmlns="http://www.w3.org/2000/svg" viewBox="0 0 50 50"><defs><style>.cls-1{fill:#fff;}.cls-2{fill:#006690;}.cls-3{fill:#292929;}.cls-4{fill:#fcfcfc;}.cls-5{fill:#292928;}.cls-6{fill:#2a2a2a;}.cls-7{fill:#2a2a29;}.cls-8{fill:#2b2b2b;}.cls-9{fill:#2c2c2c;}.cls-10{fill:#303030;}.cls-11{fill:#2f2f2f;}.cls-12{fill:#2d2d2d;}.cls-13{fill:#fdfdfd;}.cls-14{fill:#eaeae9;}.cls-15{fill:#f9f9f9;}.cls-16{fill:#f8f8f8;}.cls-17{fill:#f7f7f7;}.cls-18{fill:#eaeaea;}.cls-19{fill:#ededed;}.cls-20{fill:#d8d8d8;}.cls-21{fill:#040404;}.cls-22{fill:#050505;}.cls-23{fill:#0e0e0e;}.cls-24{fill:#e5e5e5;}.cls-25{fill:#3a3a3a;}.cls-26{fill:#363636;}.cls-27{fill:#313131;}.cls-28{fill:#020202;}.cls-29{fill:#ececec;}.cls-30{fill:#dcdcdc;}.cls-31{fill:#dbdbdb;}.cls-32{fill:#f5f5f5;}.cls-33{fill:#e3e3e3;}</style></defs><title>Amity M Assects</title><rect class="cls-1" x="0.84" y="0.84" width="48.32" height="48.32"/><path class="cls-2" d="M49.66,49.66H.34V.34H49.66Zm-48.32-1H48.66V1.34H1.34Z"/><path class="cls-3" d="M25.05,4.23A20.77,20.77,0,1,1,4.3,25,20.74,20.74,0,0,1,25.05,4.23Z"/><path class="cls-4" d="M5,25A20,20,0,1,1,25,45,20,20,0,0,1,5,25Z"/><path class="cls-5" d="M25,39A14,14,0,1,1,39,24.94,14,14,0,0,1,25,39Z"/><path class="cls-6" d="M40.27,16.67l-1.48.75c-.2.1-.41.16-.53-.08s.1-.36.28-.46l1.91-1c.18-.09.38-.19.57,0s.09.42,0,.62l-1.06,1.89,1.42-.71c.2-.1.44-.28.6,0s-.11.39-.3.49l-1.91,1c-.19.1-.39.19-.55,0a.47.47,0,0,1,0-.57Z"/><path class="cls-6" d="M24.09,8.61c-.05-.49-.1-1-.14-1.48,0-.21,0-.44.3-.44s.27.21.28.4l.18,2.29c0,.18,0,.37-.21.44A.42.42,0,0,1,24,9.65l-1-1.21c-.11-.13-.22-.33-.43-.22s0,.26,0,.39a4,4,0,0,1,.06.69c0,.25.17.64-.26.67s-.3-.36-.32-.6c-.07-.63-.1-1.27-.16-1.9,0-.24,0-.48.22-.6s.41.09.56.27L24,8.67Z"/><path class="cls-3" d="M12.13,14.68l-1.19-.95c-.13-.11-.28-.25-.13-.45s.32-.12.47,0l1.87,1.47a.35.35,0,0,1,.15.46.42.42,0,0,1-.46.21l-2.23-.17,1.22,1c.18.14.42.29.21.55s-.37.06-.53-.06c-.58-.46-1.16-.91-1.74-1.38-.14-.11-.28-.24-.21-.45s.27-.27.49-.26l2,.17Z"/><path class="cls-7" d="M34.38,10.51c-.31.44-.57.82-.84,1.18-.13.17-.25.46-.53.28s-.1-.4,0-.59c.4-.56.8-1.12,1.19-1.69.14-.19.29-.38.56-.28s.22.32.22.52c0,.66,0,1.31,0,2.13.36-.52.65-.93.94-1.33.12-.18.28-.34.5-.16s.08.31,0,.47l-1.27,1.82c-.12.17-.25.34-.49.26a.46.46,0,0,1-.28-.5Z"/><path class="cls-3" d="M40.68,27.15l2.28.4a.46.46,0,0,1,.37.24,3.31,3.31,0,0,1-.59,2.05.76.76,0,0,1-1.13-.26c-.19-.38-.33-.42-.65-.19a1.54,1.54,0,0,1-.42.17c-.22.09-.48.18-.58-.13s.14-.35.33-.44l.85-.34a.58.58,0,0,0,.39-.52c0-.35-.33-.22-.52-.29a2.45,2.45,0,0,0-.37-.08c-.19,0-.36-.11-.33-.35S40.57,27.15,40.68,27.15Z"/><path class="cls-3" d="M14.9,13.25a1.79,1.79,0,0,1-1.57-1.76A1.59,1.59,0,0,1,14.91,10a1.84,1.84,0,0,1,1.58,1.76A1.61,1.61,0,0,1,14.9,13.25Z"/><path class="cls-6" d="M26.67,9.88c-.13,0-.38-.07-.63-.09-.47,0-.6-.24-.51-.7.12-.62.17-1.26.25-1.89,0-.24.08-.44.37-.49A1.67,1.67,0,0,1,28.2,8.88,1.3,1.3,0,0,1,26.67,9.88Z"/><path class="cls-3" d="M9.6,19.76A1.65,1.65,0,0,1,8,18.19a1.54,1.54,0,0,1,1.56-1.53,1.71,1.71,0,0,1,1.66,1.58A1.53,1.53,0,0,1,9.6,19.76Z"/><path class="cls-3" d="M11.85,33.76a1.8,1.8,0,0,1-1.78,1.55A1.63,1.63,0,0,1,8.63,33.7a1.8,1.8,0,0,1,1.8-1.54A1.56,1.56,0,0,1,11.85,33.76Z"/><path class="cls-6" d="M33.75,38.75c-.1-.06-.18-.08-.22-.14a.22.22,0,0,1,.06-.33c.46-.37.91-.74,1.38-1.1.21-.16.38,0,.52.13l.62.78c1.13,1.44,1.13,1.45-.45,2.46-.15.09-.29.27-.46.07s0-.32.14-.43.47-.39.72-.57.21-.34,0-.56-.31-.2-.5,0-.44.35-.66.52-.26.2-.4.05,0-.29.09-.39a5.73,5.73,0,0,1,.6-.48c.29-.19.34-.34.1-.65s-.44-.22-.68,0S34.05,38.52,33.75,38.75Z"/><path class="cls-8" d="M39.13,31.56a1.32,1.32,0,0,1,1.12-1.25c.2,0,.38,0,.43.24s-.12.33-.32.34a.66.66,0,0,0-.64.34c-.13.27-.21.55.08.75s.48,0,.65-.21.31-.4.48-.59a.76.76,0,0,1,1-.21.79.79,0,0,1,.42.91c-.1.54-.28,1.05-.91,1.19-.18,0-.37,0-.45-.18s.1-.32.29-.36a.66.66,0,0,0,.54-.37c.09-.23.16-.45-.08-.61s-.38,0-.52.19-.33.45-.53.66a.77.77,0,0,1-1,.24A1,1,0,0,1,39.13,31.56Z"/><path class="cls-3" d="M38,16.13a1.55,1.55,0,0,1-1.29-1A1,1,0,0,1,37,13.91c.44-.38.91-.73,1.36-1.1.18-.14.37-.2.53,0s0,.34-.13.46l-1.14.9c-.35.27-.6.58-.25,1s.68.35,1.05,0l1.09-.85c.18-.13.38-.32.58,0s0,.39-.17.51C39.24,15.32,38.74,16,38,16.13Z"/><path class="cls-6" d="M11.24,36.76a.58.58,0,0,0,.23.63.39.39,0,0,0,.49.09c.19-.12.16-.3.08-.47a8.1,8.1,0,0,1-.38-.92.74.74,0,0,1,.25-.89.92.92,0,0,1,.94-.15,1.42,1.42,0,0,1,.86,1.73c-.09.16-.2.33-.41.26s-.22-.25-.14-.43a.65.65,0,0,0-.06-.78c-.18-.19-.37-.39-.66-.24s-.21.42-.12.66.24.51.33.78a.73.73,0,0,1-.27.88.75.75,0,0,1-.93,0,1.41,1.41,0,0,1-.76-1.25c0-.24.11-.51.38-.49S11.37,36.48,11.24,36.76Z"/><path class="cls-6" d="M32.72,42.11a.73.73,0,0,1-.56-.19.32.32,0,0,1-.1-.41c.09-.18.23-.14.38-.07s.29.18.42.16c.32,0,.66-.16.63-.53s-.36-.27-.62-.22l-.6.12a.85.85,0,0,1-1-.44.92.92,0,0,1,.27-1.17,1.32,1.32,0,0,1,1.68-.22c.13.12.28.28.17.46s-.29.15-.47,0a1,1,0,0,0-.41-.19.72.72,0,0,0-.66.3.38.38,0,0,0,0,.5c.16.21.4.18.63.12s.15,0,.22-.06c.45-.06.92-.22,1.26.25a.77.77,0,0,1,.07.8A1.56,1.56,0,0,1,32.72,42.11Z"/><path class="cls-6" d="M42,24.29c1.59.07,1.59.07,1.5,1.66a3.4,3.4,0,0,1,0,.45c0,.13-.08.25-.24.24a.25.25,0,0,1-.22-.27c0-.33,0-.67,0-1s0-.42-.37-.43-.4.11-.39.39,0,.51,0,.76,0,.41-.26.38-.21-.25-.2-.43a5.08,5.08,0,0,1,0-.68c0-.34-.1-.45-.43-.45s-.49,0-.46.4,0,.61,0,.92,0,.38-.28.37-.22-.19-.22-.34l.06-1.6c0-.31.2-.38.46-.38Z"/><path class="cls-6" d="M15.46,38.47a.63.63,0,0,0-.35-.7.46.46,0,0,0-.63,0,.41.41,0,0,0,0,.56c.17.26.36.5.51.76a.74.74,0,0,1-.08.92.77.77,0,0,1-.91.22A1.32,1.32,0,0,1,13,39c0-.21.08-.43.34-.41s.29.2.24.4a.55.55,0,0,0,.2.61c.18.14.39.29.62.09s.05-.38-.05-.54-.33-.46-.48-.7a.8.8,0,0,1,0-1,.86.86,0,0,1,1-.29A1.38,1.38,0,0,1,16,38.44c0,.24,0,.58-.36.57S15.42,38.69,15.46,38.47Z"/><path class="cls-8" d="M16.38,40.53c.06-.53.12-1.06.17-1.6,0-.22.09-.41.35-.4s.24.2.26.39c.09.9.68,1.18,1.49.73.15-.09.27-.14.41,0s.1.33,0,.46c-.65.58-1.29,1.17-2,1.7-.37.3-.75.06-.75-.43a5.71,5.71,0,0,1,.11-.83Z"/><path class="cls-8" d="M32.53,9.81c0,.46-.05.91-.09,1.37,0,.18-.07.37-.3.37s-.26-.18-.29-.36c-.15-.9-.74-1.18-1.52-.7-.16.1-.31.19-.46,0s0-.33.09-.46c.61-.58,1.19-1.18,1.83-1.73.38-.32.74-.14.77.37s0,.76,0,1.14Z"/><path class="cls-6" d="M9.06,24.17c.29,0,.4,0,.46.15s0,.28-.14.39c-.8.68-.79,1.14,0,1.7.13.09.26.18.2.36s-.27.23-.45.17c-.81-.28-1.63-.56-2.43-.87-.35-.14-.48-.53-.15-.72C7.43,24.88,8.32,24.52,9.06,24.17Z"/><path class="cls-6" d="M8.81,31.85a1.43,1.43,0,0,1-1.46-.78,1.32,1.32,0,0,1,0-1.38c.12-.19.29-.43.55-.29s.09.39,0,.56a.72.72,0,0,0,.27,1.2,1.37,1.37,0,0,0,1.64-.62.73.73,0,0,0-.62-1c-.22-.05-.52-.05-.4-.38s.37-.24.6-.18a1.33,1.33,0,0,1,.93,1,1.26,1.26,0,0,1-.4,1.38A1.82,1.82,0,0,1,8.81,31.85Z"/><path class="cls-5" d="M40.89,22.33l2,.31c.23,0,.52,0,.5.35s-.38.27-.6.23c-.7-.11-1.4-.25-2.11-.38-.25-.05-.52-.1-.55-.42s.15-.42.36-.54l2-1.15c.2-.11.39-.19.53.05s0,.37-.22.47Z"/><path class="cls-9" d="M18.55,9.55c0,.27-.25.31-.42.37-.53.18-.73.44-.38,1,.13.19.4.53,0,.7s-.44-.23-.55-.46c-.27-.55-.5-1.12-.78-1.66s-.11-.65.31-.82.75-.33,1.12-.49a.24.24,0,0,1,.37.13c.05.16-.08.23-.18.29s-.38.17-.56.26-.61.16-.37.64.43.17.67.09a4.19,4.19,0,0,1,.49-.2C18.41,9.33,18.49,9.42,18.55,9.55Z"/><path class="cls-8" d="M39,36.56c-.13-.12-.23-.23-.35-.32l-1.26-1c-.17-.14-.41-.3-.19-.56s.41,0,.59.09c.39.29.77.58,1.14.9s.56.47.82,0c.09-.16.25-.39.48-.17s0,.38-.1.53c-.33.43-.66.84-1,1.26-.12.16-.26.38-.49.21s0-.36.08-.52S38.92,36.7,39,36.56Z"/><path class="cls-8" d="M7.25,22c-.14.4.13.44.44.47.53.06,1.07.12,1.59.2.23,0,.5.09.44.4s-.29.24-.49.21c-.53-.05-1.06-.11-1.59-.19-.36-.06-.6,0-.59.43,0,.21,0,.46-.32.41s-.19-.31-.17-.5c.05-.51.12-1,.19-1.51,0-.22,0-.55.32-.5S7.29,21.75,7.25,22Z"/><path class="cls-10" d="M21.44,9.92a.33.33,0,0,1-.21.37c-.2.08-.34,0-.39-.24-.2-.81-.39-1.62-.58-2.44a.28.28,0,0,1,.2-.36.29.29,0,0,1,.4.24C21.06,8.3,21.25,9.11,21.44,9.92Z"/><path class="cls-11" d="M40,20.55c-.28,0-.41-.06-.44-.24a.29.29,0,0,1,.23-.34l2.38-.79a.3.3,0,0,1,.38.17.24.24,0,0,1-.14.37C41.61,20,40.77,20.3,40,20.55Z"/><path class="cls-12" d="M38.34,38.19a.9.9,0,0,1-.14.22.31.31,0,0,1-.42,0c-.61-.56-1.22-1.13-1.82-1.71a.29.29,0,0,1,0-.41.27.27,0,0,1,.4-.07c.65.6,1.29,1.21,1.93,1.82C38.28,38.05,38.29,38.1,38.34,38.19Z"/><path class="cls-12" d="M9.28,27.52c.22,0,.45,0,.49.23s-.15.35-.38.39l-2.23.39c-.21,0-.43,0-.49-.23s.18-.34.38-.38Z"/><path class="cls-11" d="M10.16,20.93a.33.33,0,0,1-.45.32L7.37,20.6a.33.33,0,0,1-.26-.33A.25.25,0,0,1,7.4,20c.88.23,1.75.47,2.62.72C10.09,20.74,10.13,20.88,10.16,20.93Z"/><path class="cls-12" d="M29,10.36a.29.29,0,0,1-.28-.38c.23-.83.47-1.65.72-2.48a.27.27,0,0,1,.36-.18.29.29,0,0,1,.19.37c-.23.82-.47,1.65-.71,2.47A.28.28,0,0,1,29,10.36Z"/><path class="cls-9" d="M38.73,32.9c.48.27,1.05.56,1.57.9.3.21,1,.28.75.74s-.72-.08-1.06-.23a13.73,13.73,0,0,1-1.45-.81.33.33,0,0,1-.2-.44C38.39,32.93,38.5,32.88,38.73,32.9Z"/><path class="cls-13" d="M36.49,18.49c-2.92.44-4.85,2.27-6.66,4.3a4.85,4.85,0,0,1-3.74,1.8.9.9,0,0,1-.94-.58,4.82,4.82,0,0,0-4.49-2.91,15.41,15.41,0,0,1-6.39-1.36C12.83,19,13,19.2,13.77,18a13.2,13.2,0,0,1,22.54.11Z"/><path class="cls-13" d="M38.21,25A13.24,13.24,0,0,1,27.15,38.08c-.2,0-.4,0-.6.07s-.37-.07-.3-.34C27,35.14,26,32.73,25,30.35a4.9,4.9,0,0,1-.09-4.15.6.6,0,0,1,.81-.4,4.86,4.86,0,0,0,5-1.76,17.43,17.43,0,0,1,4.59-4c1.62-.9,1.73-.86,2.29.85A12.93,12.93,0,0,1,38.21,25Z"/><path class="cls-13" d="M12.77,20c1.93,1.81,4.26,2.29,6.68,2.49a7.93,7.93,0,0,1,2.77.54,4.85,4.85,0,0,1,1.58,1.19.85.85,0,0,1,.06,1.29,4.69,4.69,0,0,0-.39,5.07A19.73,19.73,0,0,1,25.22,36c.32,2.23.2,2.37-2,2.12A13.34,13.34,0,0,1,12,27.14,13.52,13.52,0,0,1,12.77,20Z"/><path class="cls-14" d="M42.85,28.35c-.14.51-.11,1-.59,1s-.43-.37-.36-.69,0-.68.49-.56C42.63,28.13,42.93,28.14,42.85,28.35Z"/><path class="cls-15" d="M15.09,12.68a1.3,1.3,0,0,1-1.16-1.21.76.76,0,0,1,.79-.85c.51,0,1.15.62,1.17,1.21A.83.83,0,0,1,15.09,12.68Z"/><path class="cls-15" d="M26.18,9a9,9,0,0,0,.15-1.09c0-.77.44-.66.89-.45.63.29.45.85.35,1.33a.74.74,0,0,1-.89.65C26.35,9.35,26.05,9.3,26.18,9Z"/><path class="cls-16" d="M9.71,19.16c-.56,0-1.26-.53-1.23-1a.83.83,0,0,1,.88-.86,1.26,1.26,0,0,1,1.25,1C10.61,18.87,10.28,19.13,9.71,19.16Z"/><path class="cls-17" d="M10.6,32.77a.81.81,0,0,1,.72.83A1.35,1.35,0,0,1,10,34.69a.8.8,0,0,1-.77-.88C9.2,33.29,9.9,32.75,10.6,32.77Z"/><path class="cls-18" d="M16.82,41.33,17,40c.3,0,.71.19.68.36C17.65,40.75,17.25,40.93,16.82,41.33Z"/><path class="cls-19" d="M32.07,8.73l-.17,1.34c-.29-.1-.74-.16-.67-.38S31.68,9.14,32.07,8.73Z"/><path class="cls-20" d="M7.22,25.66c.37-.18.69-.55,1.09-.36.15.07.17.54,0,.62C7.93,26.14,7.61,25.74,7.22,25.66Z"/><path class="cls-21" d="M22.67,15.56a6.21,6.21,0,0,0-2,.71c-.36.15-.27.32-.12.58.27.43.5.89.73,1.34.06.12.15.32,0,.42a.32.32,0,0,1-.45-.16.69.69,0,0,0-.82-.4.53.53,0,0,0-.45.54c0,.35.3.18.46.2s.51,0,.49.33-.28.26-.49.26l-.85,0c-.27,0-.63.1-.78-.17s.15-.45.33-.62a.31.31,0,0,0,0-.47c-.11-.18-.23-.26-.44-.15a5.37,5.37,0,0,1-.54.22c2.38-3.38,9.11-4.66,13.8-1.05a2.31,2.31,0,0,0-.12-1.27c.44-.09.67.11.71.47a9.6,9.6,0,0,1,.08,1.61c0,.38-.55.29-.75.62a2.42,2.42,0,0,1-1.19,1.15c-.26-.45.09-.72.28-1a.32.32,0,0,0,0-.47A.68.68,0,0,0,30,18c-.2,0-.08.27-.17.38s.1.74-.39.68-.32-.53-.31-.87c0-.07,0-.14,0-.23-.31.05-.3.76-.72.43s-1.7-.29-1.4-1.51a.67.67,0,0,1,.37-.43c.21-.14.35-.31.18-.57s-.19-.38-.37-.35-.31.31-.33.53c0,.44-.06.87-.08,1.3,0,.23-.1.33-.33.31s-.21-.19-.2-.34c0-.53.09-1.06.12-1.6,0-.15.09-.41-.19-.4s-.19.26-.2.42c0,.46,0,.92,0,1.38,0,.19.05.44-.28.42s-.2-.22-.23-.39.23-.85-.21-.86-.12.55-.21.84.09.68-.42.66c-.35,0-.78.15-.9-.43,0-.21-.1-.58-.41-.54s-.34.41-.37.68-.18.64-.66.59-.84,0-.85-.62l.68.06c.27,0,.31-.24.39-.41s-.07-.32-.23-.41-.19-.05-.29-.09-.36-.18-.32-.38.34-.13.52-.15.51.19.74.35.26.14.35,0,0-.28-.11-.4-.16-.4.1-.51a.43.43,0,0,1,.54.15,2.28,2.28,0,0,1,.32.77c-.13-.59.21-.82.7-1A11.83,11.83,0,0,0,22.67,15.56Z"/><path class="cls-19" d="M22.67,15.56a8.45,8.45,0,0,1,2.17-.38c.19,0,.44,0,.48.23s-.23.3-.42.3c-.57,0-.81.24-.56.82a.49.49,0,0,1,0,.53c-.36-.29-.4-.74-.55-1.13-.07-.19-.11-.4-.39-.37s-.18.3-.21.47C23,15.9,23,15.54,22.67,15.56Z"/><path class="cls-22" d="M32.36,28.49c-.15-.11-.43-.14-.37-.4a.31.31,0,0,1,.37-.21c1.18.42.78-.56,1-1a.57.57,0,0,0-.19,0c-.27.08-.54.53-.75.25s.21-.53.43-.75a1.11,1.11,0,0,1,.73-.38c.21,0,.52,0,.4.38s-.13.51.23.6.65.12.8-.53a2.52,2.52,0,0,1-.2,1.92c-.27.7-.6,1.32.15,2,.34.31.15.9-.17,1.26s-.79.29-1.22.27c0,0-.12-.12-.1-.15s.1-.19.18-.21c.27-.08.55-.08.76-.31a.46.46,0,0,0,0-.73c-.3-.27-.41,0-.53.19a14.63,14.63,0,0,1-1.37,1.93c-.16.16-.26.43-.54.35s-.29-.29-.32-.55c-.07-.56-.91-.36-1-.94a.49.49,0,0,0-.3.68,3.37,3.37,0,0,0,.65.94c.16.18.38.37.21.66a.55.55,0,0,1-.5.3c-.35,0-.21-.35-.28-.53a8.64,8.64,0,0,0-.87-1.35c-.17-.28-.34-.54.14-.69a.65.65,0,0,0,.27-.25c.66-.83.81-.84,1.41,0,.23.3.66.36.86.72.09.16.26,0,.37-.12a3.65,3.65,0,0,0,.81-1.1c.37-.76.35-.79-.52-.89l0,0c-.17-.28-.5-.31-.72-.49s-.5-.29-.38-.56.39-.07.6-.06a8.46,8.46,0,0,0,1.26.45C33.24,28.73,32.66,28.91,32.36,28.49Z"/><path class="cls-23" d="M32.84,29.73a2.45,2.45,0,0,1,0,1.11c-.09.24-.22.41-.5.35s-.33-.28-.21-.51-.31-1.25.73-.93Z"/><path class="cls-24" d="M32.36,28.49l1.39.37c.15,0,.3.12.26.31s-.25.18-.42.14a2,2,0,0,1-1.23-.67A.38.38,0,0,1,32.36,28.49Z"/><path class="cls-25" d="M28.9,32.76c0-.15.1-.27.23-.27a.37.37,0,0,1,.35.33c0,.15-.08.23-.22.24A.33.33,0,0,1,28.9,32.76Z"/><path class="cls-26" d="M29.72,34c-.16,0-.28-.13-.28-.3s.13-.26.3-.24a.3.3,0,0,1,.29.29C30,33.9,29.87,34,29.72,34Z"/><path class="cls-21" d="M18.44,33.53a22.36,22.36,0,0,1-2.27-2.76,11.59,11.59,0,0,1-1.51-5.55c.74.63,1.45.27,2.13.34.29,0,.78-.26.81.23s-.44.35-.73.34-.53.18-.47.56c0,.23,0,.5.2.63s.35-.14.51-.25.46-.32.66,0-.05.47-.27.61a4,4,0,0,1-.61.32c-.72.27-1.07.07-1.18-.69a5.12,5.12,0,0,1,0-.68c0-.19-.06-.29-.26-.29s-.27.13-.24.3c.13.63.26,1.25.42,1.87.08.31.33.35.61.23l1.25-.58c.25-.11.58-.17.68.09s-.26.3-.44.4c-.54.28-1.25.31-1.58,1,.67.22,1-.3,1.46-.54s.89-.6,1,.31a.33.33,0,0,0,.11.19c.28.27.91.48.71.88a4.64,4.64,0,0,1-1.19,1.63c-.16.12-.43.16-.23.41s.4.3.61,0,.55-.68.83-1,.38-.57.65-.39,0,.48-.13.71-.34.42-.07.66a.78.78,0,0,0,.7.24c.33-.09.09-.37.08-.57s-.15-.38.14-.41a.36.36,0,0,1,.38.3c.07.28.15.55.22.82.12.47.24.92-.55.68-.39-.12-.61.06-.56.46.08.62-.24.48-.58.34s-.77-.67-1.26-.83Z"/><path class="cls-27" d="M17.94,25.68a.22.22,0,0,1-.11-.21.55.55,0,0,1,.44-.54c.17,0,.32,0,.31.22S18.37,25.59,17.94,25.68Z"/><path class="cls-28" d="M18.42,33.51c-.12.14,0,.43-.29.44-.15,0-.32,0-.41-.11a.39.39,0,0,1,0-.28c.08-.19.24-.09.38-.07l.36,0Z"/><path class="cls-29" d="M29.18,17.42c.32-.28.07-1,.63-.93a2.46,2.46,0,0,1,1.52,1,.35.35,0,0,1,0,.43c-.17.23-.31,0-.45-.07a1.54,1.54,0,0,1-.31-.21C30.16,17.25,29.74,17,29.18,17.42Z"/><path class="cls-30" d="M28.23,15.72c.52.08.8.31.62.82s-.28.89-.89.86c-.13,0-.26,0-.32-.14s0-.25.15-.3C28.33,16.7,28.3,16.22,28.23,15.72Z"/><path class="cls-31" d="M19.46,17.66c-.2,0-.47,0-.42-.29a.6.6,0,0,1,.59-.49c.25,0,.26.2.29.35C20,17.61,19.7,17.61,19.46,17.66Z"/><path class="cls-29" d="M34.55,27.88a.61.61,0,0,1-.62.54.46.46,0,0,1-.41-.54c0-.24,0-.61.47-.51C34.27,27.44,34.54,27.51,34.55,27.88Z"/><path class="cls-32" d="M18.57,30.35s-.09.1-.15.11c-.51.13-.91.29-.44.91.07.08,0,.21-.13.22A1.19,1.19,0,0,1,16.78,31c-.25-.35-.1-.61.24-.81a1.48,1.48,0,0,1,1.07-.3A.6.6,0,0,1,18.57,30.35Z"/><path class="cls-33" d="M19.38,33.53c-.18-.06-.41-.1-.34-.38a.41.41,0,0,1,.38-.34c.3,0,.18.31.23.48S19.57,33.54,19.38,33.53Z"/></svg>