<svg id="Layer_1" data-name="Layer 1" xmlns="http://www.w3.org/2000/svg" viewBox="0 0 508.5 282.63"><defs><style>.cls-1{fill:#231f20;}.cls-2{fill:gray;opacity:0.3;}.cls-3{fill:#fc0;}.cls-4{fill:#006690;}</style></defs><title>Amity M Assects</title><path class="cls-1" d="M116.48,275h-5.66l-1.27,3.53h-1.84l5.16-13.51h1.56l5.17,13.51h-1.83Zm-5.12-1.46H116l-2.3-6.32Z"/><path class="cls-1" d="M124,276.24l2.49-7.71h1.75l-3.6,10h-1.3l-3.64-10h1.75Z"/><path class="cls-1" d="M133.93,278.76a4.39,4.39,0,0,1-3.32-1.34,5,5,0,0,1-1.28-3.59v-.31a6,6,0,0,1,.57-2.67,4.42,4.42,0,0,1,1.6-1.84,4,4,0,0,1,2.22-.66,3.75,3.75,0,0,1,3,1.29,5.6,5.6,0,0,1,1.08,3.69V274H131a3.6,3.6,0,0,0,.87,2.4,2.74,2.74,0,0,0,2.11.92,3.05,3.05,0,0,0,1.54-.37,4,4,0,0,0,1.11-1l1,.82A4.21,4.21,0,0,1,133.93,278.76Zm-.21-9a2.3,2.3,0,0,0-1.75.75,3.71,3.71,0,0,0-.87,2.12h5v-.13a3.26,3.26,0,0,0-.71-2A2.15,2.15,0,0,0,133.72,269.76Z"/><path class="cls-1" d="M144.68,270.07a5.53,5.53,0,0,0-.84-.06,2.25,2.25,0,0,0-2.29,1.44v7.12h-1.72v-10h1.67l0,1.16a2.68,2.68,0,0,1,2.39-1.34,1.67,1.67,0,0,1,.76.13Z"/><path class="cls-1" d="M152.09,278.57a3.7,3.7,0,0,1-.25-1.06,3.81,3.81,0,0,1-2.85,1.25,3.56,3.56,0,0,1-2.44-.84,2.73,2.73,0,0,1-1-2.13,2.85,2.85,0,0,1,1.19-2.44,5.72,5.72,0,0,1,3.36-.86h1.67v-.79a2,2,0,0,0-.54-1.44,2.19,2.19,0,0,0-1.59-.53,2.52,2.52,0,0,0-1.54.47,1.36,1.36,0,0,0-.62,1.12H145.8a2.33,2.33,0,0,1,.54-1.45,3.56,3.56,0,0,1,1.45-1.11,4.68,4.68,0,0,1,2-.41,4,4,0,0,1,2.72.87,3.08,3.08,0,0,1,1,2.39v4.61a5.51,5.51,0,0,0,.36,2.2v.15Zm-2.85-1.31a3,3,0,0,0,1.53-.41,2.56,2.56,0,0,0,1-1.09V273.7h-1.35c-2.1,0-3.15.62-3.15,1.85a1.55,1.55,0,0,0,.54,1.26A2,2,0,0,0,149.24,277.26Z"/><path class="cls-1" d="M155.82,273.47a5.91,5.91,0,0,1,1.08-3.73,3.74,3.74,0,0,1,5.74-.09l.09-1.12h1.56v9.8a4.08,4.08,0,0,1-1.15,3.07,4.26,4.26,0,0,1-3.1,1.12,5.14,5.14,0,0,1-2.13-.46,3.61,3.61,0,0,1-1.58-1.27l.89-1a3.33,3.33,0,0,0,2.7,1.36,2.63,2.63,0,0,0,2-.7,2.68,2.68,0,0,0,.7-2v-.86a3.53,3.53,0,0,1-2.81,1.19,3.4,3.4,0,0,1-2.85-1.42A6.2,6.2,0,0,1,155.82,273.47Zm1.72.19a4.44,4.44,0,0,0,.7,2.67,2.24,2.24,0,0,0,1.94,1,2.52,2.52,0,0,0,2.39-1.47v-4.59a2.57,2.57,0,0,0-2.37-1.44,2.28,2.28,0,0,0-1.95,1A4.89,4.89,0,0,0,157.54,273.66Z"/><path class="cls-1" d="M171.05,278.76a4.39,4.39,0,0,1-3.32-1.34,5,5,0,0,1-1.28-3.59v-.31a6,6,0,0,1,.57-2.67,4.47,4.47,0,0,1,1.59-1.84,4.06,4.06,0,0,1,2.22-.66,3.78,3.78,0,0,1,3,1.29,5.6,5.6,0,0,1,1.08,3.69V274h-6.8a3.6,3.6,0,0,0,.87,2.4,2.73,2.73,0,0,0,2.11.92,3.05,3.05,0,0,0,1.54-.37,4,4,0,0,0,1.11-1l1,.82A4.21,4.21,0,0,1,171.05,278.76Zm-.22-9a2.29,2.29,0,0,0-1.74.75,3.71,3.71,0,0,0-.87,2.12h5v-.13a3.26,3.26,0,0,0-.71-2A2.16,2.16,0,0,0,170.83,269.76Z"/><path class="cls-1" d="M185.9,272.55a8.31,8.31,0,0,1-3.33-1.62,3.08,3.08,0,0,1-1-2.37,3.28,3.28,0,0,1,1.28-2.64,5.09,5.09,0,0,1,3.32-1,5.54,5.54,0,0,1,2.48.54,4.14,4.14,0,0,1,1.69,1.48,3.86,3.86,0,0,1,.59,2.07h-1.79a2.47,2.47,0,0,0-.78-1.93,3.15,3.15,0,0,0-2.19-.7,3.24,3.24,0,0,0-2.06.58,1.93,1.93,0,0,0-.74,1.61,1.77,1.77,0,0,0,.7,1.4,6.79,6.79,0,0,0,2.39,1,11.16,11.16,0,0,1,2.63,1,3.87,3.87,0,0,1,1.41,1.33,3.36,3.36,0,0,1,.46,1.79,3.17,3.17,0,0,1-1.28,2.63,5.43,5.43,0,0,1-3.42,1,6.27,6.27,0,0,1-2.6-.54,4.36,4.36,0,0,1-1.86-1.46,3.53,3.53,0,0,1-.65-2.1h1.79a2.33,2.33,0,0,0,.9,1.93,3.83,3.83,0,0,0,2.42.71,3.52,3.52,0,0,0,2.16-.57,1.88,1.88,0,0,0,.75-1.57,1.83,1.83,0,0,0-.7-1.54A7.92,7.92,0,0,0,185.9,272.55Z"/><path class="cls-1" d="M199.12,278.57a3.46,3.46,0,0,1-.24-1.06,3.84,3.84,0,0,1-2.86,1.25,3.52,3.52,0,0,1-2.43-.84,2.7,2.7,0,0,1-1-2.13,2.83,2.83,0,0,1,1.19-2.44,5.66,5.66,0,0,1,3.35-.86h1.67v-.79a2,2,0,0,0-.54-1.44,2.15,2.15,0,0,0-1.58-.53,2.5,2.5,0,0,0-1.54.47,1.33,1.33,0,0,0-.62,1.12h-1.73a2.33,2.33,0,0,1,.54-1.45,3.53,3.53,0,0,1,1.44-1.11,4.76,4.76,0,0,1,2-.41,4,4,0,0,1,2.72.87,3.15,3.15,0,0,1,1,2.39v4.61a5.71,5.71,0,0,0,.35,2.2v.15Zm-2.85-1.31a3,3,0,0,0,1.53-.41,2.45,2.45,0,0,0,1-1.09V273.7h-1.34c-2.11,0-3.16.62-3.16,1.85a1.55,1.55,0,0,0,.54,1.26A2.08,2.08,0,0,0,196.27,277.26Z"/><path class="cls-1" d="M205.12,278.57h-1.71V264.32h1.71Z"/><path class="cls-1" d="M214.07,278.57a3.46,3.46,0,0,1-.24-1.06,3.84,3.84,0,0,1-2.86,1.25,3.56,3.56,0,0,1-2.44-.84,2.73,2.73,0,0,1-.95-2.13,2.85,2.85,0,0,1,1.19-2.44,5.72,5.72,0,0,1,3.36-.86h1.67v-.79a2,2,0,0,0-.54-1.44,2.19,2.19,0,0,0-1.59-.53,2.52,2.52,0,0,0-1.54.47,1.36,1.36,0,0,0-.62,1.12h-1.72a2.32,2.32,0,0,1,.53-1.45,3.63,3.63,0,0,1,1.45-1.11,4.76,4.76,0,0,1,2-.41,3.94,3.94,0,0,1,2.71.87,3.08,3.08,0,0,1,1,2.39v4.61a5.51,5.51,0,0,0,.36,2.2v.15Zm-2.85-1.31a3,3,0,0,0,1.53-.41,2.56,2.56,0,0,0,1.05-1.09V273.7h-1.35c-2.1,0-3.15.62-3.15,1.85a1.55,1.55,0,0,0,.54,1.26A2.08,2.08,0,0,0,211.22,277.26Z"/><path class="cls-1" d="M223.06,270.07a5.57,5.57,0,0,0-.85-.06,2.26,2.26,0,0,0-2.29,1.44v7.12h-1.71v-10h1.67l0,1.16a2.69,2.69,0,0,1,2.4-1.34,1.73,1.73,0,0,1,.76.13Z"/><path class="cls-1" d="M228.09,276.06l2.33-7.53h1.84l-4,11.59c-.63,1.67-1.62,2.51-3,2.51l-.33,0-.64-.12v-1.39l.47,0a2.27,2.27,0,0,0,1.36-.35,2.53,2.53,0,0,0,.8-1.29l.38-1-3.58-9.93h1.87Z"/><path class="cls-1" d="M330.45,278.57h-1.79v-6.24h-6.81v6.24h-1.79V265.06h1.79v5.81h6.81v-5.81h1.79Z"/><path class="cls-1" d="M333.35,265.87a1,1,0,0,1,.25-.7,1.14,1.14,0,0,1,1.52,0,1,1,0,1,1-1.77.7Zm1.86,12.7h-1.72v-10h1.72Z"/><path class="cls-1" d="M337.54,273.47a5.85,5.85,0,0,1,1.09-3.73,3.74,3.74,0,0,1,5.74-.09l.08-1.11H346v9.79a4.08,4.08,0,0,1-1.15,3.07,4.27,4.27,0,0,1-3.11,1.13,5.14,5.14,0,0,1-2.12-.47,3.7,3.7,0,0,1-1.59-1.27l.89-1a3.36,3.36,0,0,0,2.7,1.36,2.64,2.64,0,0,0,2-.7,2.72,2.72,0,0,0,.7-2v-.86a3.55,3.55,0,0,1-2.81,1.19,3.43,3.43,0,0,1-2.86-1.42A6.26,6.26,0,0,1,337.54,273.47Zm1.73.2a4.5,4.5,0,0,0,.69,2.66,2.27,2.27,0,0,0,2,1,2.53,2.53,0,0,0,2.39-1.47v-4.59a2.56,2.56,0,0,0-2.37-1.43,2.29,2.29,0,0,0-2,1A4.91,4.91,0,0,0,339.27,273.67Z"/><path class="cls-1" d="M350.33,269.75a3.66,3.66,0,0,1,3-1.4q3.18,0,3.21,3.59v6.63h-1.72v-6.64a2.29,2.29,0,0,0-.5-1.6,2,2,0,0,0-1.51-.52,2.46,2.46,0,0,0-1.47.44,3,3,0,0,0-1,1.17v7.15h-1.72V264.32h1.72Z"/><path class="cls-1" d="M363.24,278.76a4.39,4.39,0,0,1-3.32-1.34,5,5,0,0,1-1.28-3.59v-.31a6,6,0,0,1,.57-2.67,4.48,4.48,0,0,1,1.6-1.84,4,4,0,0,1,2.22-.66,3.75,3.75,0,0,1,3,1.29,5.6,5.6,0,0,1,1.09,3.69V274h-6.8a3.54,3.54,0,0,0,.86,2.4,2.74,2.74,0,0,0,2.11.92,3.05,3.05,0,0,0,1.54-.37,4,4,0,0,0,1.11-1l1,.82A4.24,4.24,0,0,1,363.24,278.76Zm-.21-9a2.27,2.27,0,0,0-1.75.76,3.65,3.65,0,0,0-.87,2.11h5v-.12a3.21,3.21,0,0,0-.71-2A2.13,2.13,0,0,0,363,269.76Z"/><path class="cls-1" d="M375,275.91a1.27,1.27,0,0,0-.53-1.08,4.9,4.9,0,0,0-1.83-.66,8.88,8.88,0,0,1-2.06-.67,3,3,0,0,1-1.14-.93,2.24,2.24,0,0,1-.36-1.28,2.63,2.63,0,0,1,1-2.09,4.09,4.09,0,0,1,2.67-.85,4.18,4.18,0,0,1,2.77.88,2.79,2.79,0,0,1,1.06,2.25h-1.73a1.57,1.57,0,0,0-.59-1.21,2.26,2.26,0,0,0-1.51-.51,2.38,2.38,0,0,0-1.47.41,1.28,1.28,0,0,0-.53,1.06,1,1,0,0,0,.5.94,6,6,0,0,0,1.77.6,9.88,9.88,0,0,1,2.08.69,3.1,3.1,0,0,1,1.19,1,2.4,2.4,0,0,1,.38,1.37,2.58,2.58,0,0,1-1.07,2.16,4.54,4.54,0,0,1-2.8.81,5,5,0,0,1-2.13-.43,3.42,3.42,0,0,1-1.45-1.19,2.87,2.87,0,0,1-.53-1.66h1.72a1.77,1.77,0,0,0,.69,1.37,2.67,2.67,0,0,0,1.7.51,2.75,2.75,0,0,0,1.57-.4A1.21,1.21,0,0,0,375,275.91Z"/><path class="cls-1" d="M381.27,266.1v2.44h1.87v1.32h-1.87v6.23a1.37,1.37,0,0,0,.25.91,1,1,0,0,0,.85.3,4.53,4.53,0,0,0,.82-.11v1.38a4.73,4.73,0,0,1-1.32.19,2.13,2.13,0,0,1-1.74-.7,3,3,0,0,1-.58-2v-6.23h-1.83v-1.32h1.83V266.1Z"/><path class="cls-1" d="M394.1,272.55a8.43,8.43,0,0,1-3.34-1.62,3.11,3.11,0,0,1-1-2.37,3.28,3.28,0,0,1,1.27-2.64,5.11,5.11,0,0,1,3.32-1,5.48,5.48,0,0,1,2.48.54,4.08,4.08,0,0,1,1.69,1.48,3.79,3.79,0,0,1,.6,2.07h-1.79a2.47,2.47,0,0,0-.78-1.93,3.16,3.16,0,0,0-2.2-.7,3.21,3.21,0,0,0-2.05.58,1.9,1.9,0,0,0-.74,1.61,1.74,1.74,0,0,0,.7,1.4,6.81,6.81,0,0,0,2.38,1,11.26,11.26,0,0,1,2.64,1,4,4,0,0,1,1.41,1.33,3.45,3.45,0,0,1,.46,1.79,3.17,3.17,0,0,1-1.28,2.63,5.48,5.48,0,0,1-3.43,1,6.26,6.26,0,0,1-2.59-.54,4.25,4.25,0,0,1-1.86-1.46,3.52,3.52,0,0,1-.66-2.1h1.79a2.31,2.31,0,0,0,.91,1.93,3.82,3.82,0,0,0,2.41.71,3.57,3.57,0,0,0,2.17-.57,1.88,1.88,0,0,0,.75-1.57,1.86,1.86,0,0,0-.7-1.54A7.92,7.92,0,0,0,394.1,272.55Z"/><path class="cls-1" d="M407.32,278.57a3.45,3.45,0,0,1-.24-1.05,3.86,3.86,0,0,1-2.86,1.24,3.56,3.56,0,0,1-2.44-.84,2.73,2.73,0,0,1-.95-2.13,2.85,2.85,0,0,1,1.19-2.44,5.72,5.72,0,0,1,3.36-.86h1.67v-.79a1.91,1.91,0,0,0-.54-1.43,2.16,2.16,0,0,0-1.59-.54,2.52,2.52,0,0,0-1.54.47,1.36,1.36,0,0,0-.62,1.12H401a2.32,2.32,0,0,1,.53-1.45,3.63,3.63,0,0,1,1.45-1.11,4.91,4.91,0,0,1,2-.41,3.94,3.94,0,0,1,2.71.87,3.08,3.08,0,0,1,1,2.39v4.62a5.49,5.49,0,0,0,.36,2.19v.15Zm-2.85-1.31a3,3,0,0,0,1.53-.41,2.56,2.56,0,0,0,1.05-1.09V273.7H405.7c-2.1,0-3.15.62-3.15,1.85a1.55,1.55,0,0,0,.54,1.26A2.08,2.08,0,0,0,404.47,277.26Z"/><path class="cls-1" d="M413.32,278.57H411.6V264.32h1.72Z"/><path class="cls-1" d="M422.26,278.57a3.45,3.45,0,0,1-.24-1.05,3.86,3.86,0,0,1-2.85,1.24,3.53,3.53,0,0,1-2.44-.84,2.73,2.73,0,0,1-1-2.13,2.85,2.85,0,0,1,1.19-2.44,5.68,5.68,0,0,1,3.35-.86H422v-.79a1.94,1.94,0,0,0-.53-1.43,2.16,2.16,0,0,0-1.59-.54,2.5,2.5,0,0,0-1.54.47,1.36,1.36,0,0,0-.62,1.12H416a2.33,2.33,0,0,1,.54-1.45,3.53,3.53,0,0,1,1.44-1.11,4.91,4.91,0,0,1,2-.41,4,4,0,0,1,2.72.87,3.08,3.08,0,0,1,1,2.39v4.62a5.69,5.69,0,0,0,.35,2.19v.15Zm-2.84-1.31a3,3,0,0,0,1.53-.41,2.48,2.48,0,0,0,1-1.09V273.7h-1.34c-2.1,0-3.15.62-3.15,1.85a1.54,1.54,0,0,0,.53,1.26A2.09,2.09,0,0,0,419.42,277.26Z"/><path class="cls-1" d="M431.25,270.07a5.53,5.53,0,0,0-.84-.06,2.25,2.25,0,0,0-2.29,1.44v7.12H426.4v-10h1.67l0,1.15a2.68,2.68,0,0,1,2.39-1.34,1.67,1.67,0,0,1,.76.13Z"/><path class="cls-1" d="M436.28,276.06l2.34-7.52h1.84l-4,11.58c-.62,1.67-1.62,2.51-3,2.51l-.32,0-.64-.12v-1.39l.46,0a2.25,2.25,0,0,0,1.36-.35,2.47,2.47,0,0,0,.8-1.29l.38-1-3.58-9.92h1.88Z"/><path class="cls-1" d="M8.63,245.05a4.64,4.64,0,0,1-.69,2.77,2.43,2.43,0,0,1-2.1.94,2.48,2.48,0,0,1-2.08-.91,4.44,4.44,0,0,1-.72-2.7v-1.48a4.56,4.56,0,0,1,.69-2.76,2.46,2.46,0,0,1,2.1-.92,2.47,2.47,0,0,1,2.09.9,4.49,4.49,0,0,1,.71,2.68Zm-1.43-1.6a3.61,3.61,0,0,0-.33-1.76,1.12,1.12,0,0,0-1-.56,1.14,1.14,0,0,0-1,.53,3.46,3.46,0,0,0-.34,1.66v1.93A3.73,3.73,0,0,0,4.79,247a1.14,1.14,0,0,0,1,.59,1.11,1.11,0,0,0,1-.54,3.59,3.59,0,0,0,.34-1.7Z"/><path class="cls-1" d="M14.58,247.46h3.88v1.18H13.1v-8.53h1.48Z"/><path class="cls-1" d="M8.8,218.77H3.06v-1l2.85-3.1a6.76,6.76,0,0,0,.87-1.15,1.76,1.76,0,0,0,.26-.92,1.39,1.39,0,0,0-.34-1,1.2,1.2,0,0,0-.92-.38,1.36,1.36,0,0,0-1.07.42,1.66,1.66,0,0,0-.39,1.16H2.9a2.82,2.82,0,0,1,.35-1.4,2.45,2.45,0,0,1,1-1,3.22,3.22,0,0,1,1.52-.35,2.91,2.91,0,0,1,2,.62,2.18,2.18,0,0,1,.72,1.73,2.93,2.93,0,0,1-.36,1.34,7.66,7.66,0,0,1-1.18,1.59l-2.09,2.23h4Z"/><path class="cls-1" d="M14.58,217.58h3.88v1.19H13.1v-8.53h1.48Z"/><path class="cls-1" d="M7.88,185.85H8.94V187H7.88v1.9H6.46V187H2.77l0-.87,3.68-5.77H7.88Zm-3.66,0H6.46v-3.56l-.11.19Z"/><path class="cls-1" d="M14.58,187.71h3.88v1.19H13.1v-8.54h1.48Z"/><path class="cls-1" d="M7.49,150.45v1.18H7.32a2.78,2.78,0,0,0-1.91.66,2.7,2.7,0,0,0-.85,1.81,2.31,2.31,0,0,1,1.75-.72,2.17,2.17,0,0,1,1.78.79,3.12,3.12,0,0,1,.66,2.06,2.9,2.9,0,0,1-.77,2.1,2.63,2.63,0,0,1-2,.81,2.56,2.56,0,0,1-2.07-.94,3.73,3.73,0,0,1-.8-2.48v-.48a5.27,5.27,0,0,1,1.09-3.52,4,4,0,0,1,3.15-1.27ZM6,154.52a1.46,1.46,0,0,0-.85.27,1.51,1.51,0,0,0-.57.7v.43a2.58,2.58,0,0,0,.39,1.51A1.2,1.2,0,0,0,6,158a1.23,1.23,0,0,0,1-.47,2,2,0,0,0,.37-1.25A2,2,0,0,0,7,155,1.21,1.21,0,0,0,6,154.52Z"/><path class="cls-1" d="M14.58,157.84h3.88V159H13.1v-8.53h1.48Z"/><path class="cls-1" d="M8.44,122.87A2,2,0,0,1,8.12,124a2.35,2.35,0,0,1-.88.77,2.39,2.39,0,0,1,1,.85,2.14,2.14,0,0,1,.37,1.22,2.23,2.23,0,0,1-.77,1.78,3,3,0,0,1-2,.66,3,3,0,0,1-2-.66A2.24,2.24,0,0,1,3,126.83a2.17,2.17,0,0,1,.36-1.23,2.24,2.24,0,0,1,1-.84,2.25,2.25,0,0,1-.87-.77,2,2,0,0,1-.32-1.12,2.22,2.22,0,0,1,.7-1.73,2.75,2.75,0,0,1,1.9-.64,2.73,2.73,0,0,1,1.9.64A2.22,2.22,0,0,1,8.44,122.87ZM7.2,126.76a1.38,1.38,0,0,0-.38-1,1.32,1.32,0,0,0-1-.39,1.31,1.31,0,0,0-1,.39,1.42,1.42,0,0,0-.37,1,1.36,1.36,0,0,0,.37,1,1.34,1.34,0,0,0,1,.37,1.35,1.35,0,0,0,1-.36A1.37,1.37,0,0,0,7.2,126.76ZM7,122.92A1.33,1.33,0,0,0,6.7,122a1.12,1.12,0,0,0-.87-.36A1.11,1.11,0,0,0,5,122a1.33,1.33,0,0,0-.32.93,1.35,1.35,0,0,0,.32.94,1.12,1.12,0,0,0,.87.34,1.11,1.11,0,0,0,.86-.34A1.35,1.35,0,0,0,7,122.92Z"/><path class="cls-1" d="M14.58,128h3.88v1.18H13.1v-8.53h1.48Z"/><path class="cls-1" d="M3.51,99.28H2.09V92.43L0,93.14v-1.2l3.33-1.22h.18Z"/><path class="cls-1" d="M12,95.69a4.62,4.62,0,0,1-.69,2.77,2.43,2.43,0,0,1-2.1.94,2.48,2.48,0,0,1-2.08-.91,4.44,4.44,0,0,1-.72-2.7V94.31a4.58,4.58,0,0,1,.69-2.76,2.46,2.46,0,0,1,2.1-.92,2.47,2.47,0,0,1,2.09.9A4.49,4.49,0,0,1,12,94.21Zm-1.43-1.6a3.61,3.61,0,0,0-.33-1.76,1.12,1.12,0,0,0-1-.56,1.14,1.14,0,0,0-1,.53A3.46,3.46,0,0,0,7.87,94v1.93a3.73,3.73,0,0,0,.33,1.78,1.12,1.12,0,0,0,1.05.59,1.11,1.11,0,0,0,1-.54,3.59,3.59,0,0,0,.34-1.7Z"/><path class="cls-1" d="M18,98.1h3.88v1.18H16.51V90.75H18Z"/><path class="cls-1" d="M3.51,69.41H2.09V62.55L0,63.27v-1.2l3.33-1.22h.18Z"/><path class="cls-1" d="M12.21,69.41H6.47v-1l2.85-3.1a6.76,6.76,0,0,0,.87-1.15,1.76,1.76,0,0,0,.26-.92,1.39,1.39,0,0,0-.34-1,1.2,1.2,0,0,0-.92-.38,1.36,1.36,0,0,0-1.07.42,1.66,1.66,0,0,0-.39,1.16H6.31a2.73,2.73,0,0,1,.36-1.4,2.37,2.37,0,0,1,1-1,3.24,3.24,0,0,1,1.52-.35,2.91,2.91,0,0,1,2,.62,2.18,2.18,0,0,1,.72,1.73,2.93,2.93,0,0,1-.36,1.34A7.66,7.66,0,0,1,10.34,66L8.25,68.27h4Z"/><path class="cls-1" d="M18,68.22h3.88v1.19H16.51V60.88H18Z"/><path class="cls-1" d="M3.51,39.54H2.09V32.68L0,33.4V32.2L3.33,31h.18Z"/><path class="cls-1" d="M11.29,36.5h1.06v1.14H11.29v1.9H9.87v-1.9H6.18l0-.87L9.82,31h1.47Zm-3.66,0H9.87V32.93l-.11.19Z"/><path class="cls-1" d="M18,38.35h3.88v1.19H16.51V31H18Z"/><path class="cls-1" d="M3.51,9.66H2.09V2.81L0,3.52V2.33L3.33,1.1h.18Z"/><path class="cls-1" d="M10.9,1.09V2.27h-.17a2.78,2.78,0,0,0-1.91.66A2.72,2.72,0,0,0,8,4.74,2.31,2.31,0,0,1,9.72,4a2.17,2.17,0,0,1,1.78.79,3.12,3.12,0,0,1,.66,2.06A3,3,0,0,1,11.39,9a2.66,2.66,0,0,1-2,.8,2.56,2.56,0,0,1-2.07-.94,3.72,3.72,0,0,1-.8-2.47V5.88A5.27,5.27,0,0,1,7.61,2.36a4,4,0,0,1,3.15-1.27ZM9.38,5.16a1.46,1.46,0,0,0-.86.27,1.51,1.51,0,0,0-.57.7v.43a2.58,2.58,0,0,0,.39,1.51,1.27,1.27,0,0,0,2,.09,2,2,0,0,0,.37-1.25,2,2,0,0,0-.38-1.26A1.2,1.2,0,0,0,9.38,5.16Z"/><path class="cls-1" d="M18,8.48h3.88V9.66H16.51V1.13H18Z"/><rect class="cls-2" x="39.08" y="217.6" width="469.42" height="0.75"/><rect class="cls-2" x="39.08" y="187.74" width="469.42" height="0.75"/><rect class="cls-2" x="39.08" y="157.88" width="469.42" height="0.75"/><rect class="cls-2" x="39.08" y="128.02" width="469.42" height="0.75"/><rect class="cls-2" x="39.08" y="98.17" width="469.42" height="0.75"/><rect class="cls-2" x="39.08" y="68.31" width="469.42" height="0.75"/><rect class="cls-2" x="39.08" y="38.45" width="469.42" height="0.75"/><rect class="cls-2" x="39.08" y="8.59" width="469.42" height="0.75"/><path class="cls-3" d="M275.09,123.83H480.54a3.56,3.56,0,0,1,3.56,3.56v31.89a3.56,3.56,0,0,1-3.56,3.56H275.09a0,0,0,0,1,0,0v-39A0,0,0,0,1,275.09,123.83Z" transform="translate(236.26 522.92) rotate(-90)"/><path class="cls-3" d="M144.94,203.29h47.61a2.46,2.46,0,0,1,2.46,2.46v34.07a2.46,2.46,0,0,1-2.46,2.46H144.94a0,0,0,0,1,0,0v-39A0,0,0,0,1,144.94,203.29Z" transform="translate(-52.82 392.77) rotate(-90)"/><path class="cls-4" d="M343.22,24.92h-4.94v-19l-5.9,1.83v-4L342.69,0h.53Z"/><path class="cls-4" d="M365.92,15.55h2.82v4h-2.82v5.39H361V19.53H350.77l-.22-3.11L360.93,0h5Zm-10.45,0H361V6.77l-.33.56Z"/><path class="cls-4" d="M385.76,20.8h10.88v4.12h-16V0h5.13Z"/><path class="cls-4" d="M404.71,16.15v8.77h-5.13V0h9.71a11.28,11.28,0,0,1,4.93,1A7.49,7.49,0,0,1,417.49,4a8.18,8.18,0,0,1,1.15,4.3A7.15,7.15,0,0,1,416.13,14a10.42,10.42,0,0,1-6.93,2.11Zm0-4.15h4.58a4.5,4.5,0,0,0,3.1-1,3.49,3.49,0,0,0,1.07-2.73,4.1,4.1,0,0,0-1.08-3,4,4,0,0,0-3-1.16h-4.7Z"/><path class="cls-4" d="M433.16,19.79h-9l-1.7,5.13H417L426.28,0H431l9.31,24.89h-5.45Zm-7.6-4.15h6.22l-3.13-9.32Z"/><path class="cls-4" d="M117.38,169H120a3.71,3.71,0,0,0,2.79-.94,3.46,3.46,0,0,0,.9-2.49,3,3,0,0,0-.89-2.34,3.49,3.49,0,0,0-2.47-.84,3.65,3.65,0,0,0-2.38.78,2.46,2.46,0,0,0-1,2h-4.93a6.06,6.06,0,0,1,1.05-3.49,7,7,0,0,1,2.94-2.42,9.78,9.78,0,0,1,4.16-.87,9.33,9.33,0,0,1,6.18,1.88,6.44,6.44,0,0,1,2.24,5.21,5.24,5.24,0,0,1-1,3.14,6.74,6.74,0,0,1-2.73,2.21,5.81,5.81,0,0,1,4.17,5.81,6.54,6.54,0,0,1-2.42,5.31,9.71,9.71,0,0,1-6.4,2,9.18,9.18,0,0,1-6.09-2,6.41,6.41,0,0,1-2.37-5.2h4.94a2.85,2.85,0,0,0,1,2.29,4.39,4.39,0,0,0,5.35,0,3.25,3.25,0,0,0,1-2.47c0-2.48-1.37-3.73-4.1-3.73h-2.62Z"/><path class="cls-4" d="M132.9,181.23a2.48,2.48,0,0,1,.79-1.91,3.07,3.07,0,0,1,4,0,2.49,2.49,0,0,1,.8,1.91,2.46,2.46,0,0,1-.79,1.89,3.13,3.13,0,0,1-4,0A2.45,2.45,0,0,1,132.9,181.23Z"/><path class="cls-4" d="M143.34,171.42l1.43-12.64h13.95v4.12h-9.9l-.61,5.35a7.78,7.78,0,0,1,3.74-.94,7.16,7.16,0,0,1,5.57,2.2,8.79,8.79,0,0,1,2,6.17,9,9,0,0,1-1,4.31,7.16,7.16,0,0,1-2.91,3,9.13,9.13,0,0,1-4.48,1.05,9.61,9.61,0,0,1-4.18-.91,7.5,7.5,0,0,1-3.06-2.57,7,7,0,0,1-1.18-3.78h4.88a3.7,3.7,0,0,0,1.09,2.42,3.46,3.46,0,0,0,2.44.86,3.06,3.06,0,0,0,2.58-1.2,5.62,5.62,0,0,0,.9-3.41,4.63,4.63,0,0,0-1-3.25,3.84,3.84,0,0,0-3-1.13,4.3,4.3,0,0,0-2.85.92l-.48.45Z"/><path class="cls-4" d="M177.06,179.54h10.88v4.12h-16V158.78h5.13Z"/><path class="cls-4" d="M196,174.89v8.77h-5.13V158.78h9.71a11.28,11.28,0,0,1,4.93,1,7.57,7.57,0,0,1,3.27,2.92,8.16,8.16,0,0,1,1.15,4.3,7.13,7.13,0,0,1-2.51,5.76,10.42,10.42,0,0,1-6.93,2.11Zm0-4.15h4.58a4.5,4.5,0,0,0,3.1-1,3.47,3.47,0,0,0,1.07-2.73,4.1,4.1,0,0,0-1.08-3,4,4,0,0,0-3-1.16H196Z"/><path class="cls-4" d="M224.46,178.53h-9l-1.7,5.13h-5.46l9.27-24.88h4.75l9.31,24.88h-5.45Zm-7.6-4.15h6.22L220,165.07Z"/><rect class="cls-3" x="39.08" y="246.83" width="469.42" height="2"/></svg>