<svg id="Layer_1" data-name="Layer 1" xmlns="http://www.w3.org/2000/svg" viewBox="0 0 120 100"><defs><style>.cls-1{fill:#fc0;}</style></defs><title>Amity M Assects</title><polygon class="cls-1" points="117.21 97.51 2.79 97.51 2.79 21.97 42.06 21.97 42.06 22.97 3.79 22.97 3.79 96.51 116.21 96.51 116.21 22.97 75.93 22.97 75.93 21.97 117.21 21.97 117.21 97.51"/><path class="cls-1" d="M40.88,19.48c1.19-2.51,2.4-5,3.55-7.53a1.17,1.17,0,0,1,1.27-.82c2,0,4.09,0,6.14,0a2.61,2.61,0,0,0,1.73-.54C55,9.53,56.52,8.47,58,7.43A1.4,1.4,0,0,0,58.75,6c-.06-1.16,0-2.33,0-3.55h1.12V6.08H64V4.44H60.08V3.36h5.83A2.85,2.85,0,0,0,66,7.21h-5.3l-.07.19,1.86,1.35c1.14.8,2.18,1.89,3.45,2.3s2.7.1,4.06.1c1,0,2.08,0,3.11,0a.92.92,0,0,1,1,.66c1.12,2.46,2.27,4.9,3.41,7.34.06.12.14.22.21.34v.33l-.84-.06V29.8h.84v3.77c-.32,0-.65,0-1,0q-13.45,0-26.9,0c-3,0-6,0-9,0V29.8h.84V19.72l-.84.09Zm10.63,10.3c0-2,0-3.85,0-5.72a2,2,0,0,1,1.9-2.14,2,2,0,0,1,2,2.15c0,1.28,0,2.56,0,3.84,0,.62,0,1.24,0,1.86H57.2c0-.3,0-.56,0-.83,0-1.61,0-3.22,0-4.83a2,2,0,0,1,1.94-2.19,2.06,2.06,0,0,1,2,2.17c0,1.61,0,3.22,0,4.83v.84H63v-.93c0-1.67,0-3.33,0-5A2.08,2.08,0,0,1,64.54,22,1.91,1.91,0,0,1,66.63,23a3.33,3.33,0,0,1,.26,1.25c0,1.82,0,3.64,0,5.47h1.8V18.68H49.9v11.1Zm-9.45,2.71H76.53V31H42.06Zm.84-2.73h5.78v-10H42.9Zm32.84-10H69.93v9.94h5.81ZM48.82,17.47h21V16.1h-21ZM59.31,7.86l-9.73,7a3.62,3.62,0,0,0,3-.61c2.19-1.61,4.46-3.11,6.73-4.67,2.38,1.64,4.76,3.23,7.08,4.9a3.69,3.69,0,0,0,2.68.4ZM51,12.46l0-.19c-1.68,0-3.36,0-5,0-.21,0-.49.29-.6.51-.83,1.71-1.63,3.44-2.43,5.17-.08.18-.12.39-.19.6h5V16.09L46.06,16Zm25,6.15a1.21,1.21,0,0,0,0-.33c-.87-1.87-1.73-3.75-2.63-5.61a.93.93,0,0,0-.69-.38c-1,0-2.07,0-3.11,0h-1.8l0,.18,5,3.58H71v2.57ZM53.58,14.84H65c-1.91-1.32-3.66-2.53-5.42-3.71a.7.7,0,0,0-.63,0C57.23,12.32,55.48,13.53,53.58,14.84Zm-1,14.91h1.72V23.91a.78.78,0,0,0-.85-.88.74.74,0,0,0-.86.78C52.57,25.79,52.59,27.77,52.59,29.75Zm7.45,0c0-1.93,0-3.78,0-5.63,0-.6-.09-1.11-.84-1.13s-.89.49-.89,1.1c0,1.71,0,3.43,0,5.14a3,3,0,0,0,.08.52Zm5.74,0c0-2,0-4,0-5.94a.74.74,0,0,0-.83-.8.73.73,0,0,0-.85.77c0,2,0,3.95,0,6Z"/><path class="cls-1" d="M45.2,23.89h-1V22.15h1Z"/><path class="cls-1" d="M46.57,23.87V22.14h1v1.73Z"/><path class="cls-1" d="M44.19,24.92h1v1.74h-1Z"/><path class="cls-1" d="M47.55,26.67h-1V24.93h1Z"/><path class="cls-1" d="M72,23.88h-1V22.16h1Z"/><path class="cls-1" d="M74.44,22.15v1.71h-1V22.15Z"/><path class="cls-1" d="M71.05,24.92h1v1.74h-1Z"/><path class="cls-1" d="M73.42,24.91h1v1.74h-1Z"/><path class="cls-1" d="M58.45,14.19V13.1h1v1.09Z"/></svg>