<svg id="Layer_1" data-name="Layer 1" xmlns="http://www.w3.org/2000/svg" viewBox="0 0 120 100"><defs><style>.cls-1{fill:#fc0;}</style></defs><title>Amity M Assects</title><path class="cls-1" d="M42.89,21.55l-.3.69a.47.47,0,0,1-.68.27l-6-2.32c-.35-.13-.43-.36-.28-.76q1.75-4.72,3.53-9.45l1-2.61c.16-.42.37-.51.79-.36L47,9.26c.5.19.59.39.37.88l-.39.91.73.27,3.17,1.13c.42.15.51.37.35.78l-.24.58a5.62,5.62,0,0,0,3.37-.09c1.18-.51,2.41-.89,3.61-1.33a2.39,2.39,0,0,1,1.8,0l.29.12a2.3,2.3,0,0,0,1.83.25,2.41,2.41,0,0,1,1.45.09c.93.28,1.86.55,2.78.85a4.1,4.1,0,0,0,2.76-.18c0-.16-.09-.33-.13-.49-.12-.43,0-.64.43-.75l3.4-.91.16-.05c-.1-.33-.19-.65-.29-1s-.13-.42-.19-.64a.48.48,0,0,1,.35-.64l6.21-1.88c.37-.11.57,0,.7.42q1.17,3.81,2.36,7.63l1.74,5.61c.16.52.06.69-.46.84l-6.07,1.67c-.49.14-.67,0-.81-.43-.09-.28-.17-.55-.26-.85l-.8.2-3,.8c-.56.15-.71.06-.86-.5,0-.08,0-.15-.08-.26a3.76,3.76,0,0,1-2.07.18,2,2,0,0,1-2,2,1.68,1.68,0,0,1-1.62,1.59,1.59,1.59,0,0,1-2.41,1.3l0,0a1.31,1.31,0,0,1-1.94.81l-2.13-1-.08,0c-.22.31-.46.62-.67.94a1.71,1.71,0,0,1-1.72.86,1.67,1.67,0,0,1-1.43-1.2l0-.05a1.7,1.7,0,0,1-2-.86,1.71,1.71,0,0,1-2.64-1.57c-1.4-.46-1.83-1.3-1.26-2.54l-1.63-.76-.25.58a.49.49,0,0,1-.73.3L43,21.6Zm16.65,4.93,2.11,1c.25.11.44.06.53-.13s0-.36-.24-.49l-1.29-.7a1.11,1.11,0,0,1-.24-.16.46.46,0,0,1,0-.61.48.48,0,0,1,.65-.11l2.66,1.36a.59.59,0,0,0,.86-.21.57.57,0,0,0-.3-.79L62,24.26,60,23.1a.47.47,0,0,1-.25-.54.42.42,0,0,1,.42-.35.81.81,0,0,1,.39.12l4.67,2.72a.65.65,0,0,0,.93-.2.62.62,0,0,0-.27-.88l-4.11-2.55c-.35-.22-.45-.48-.29-.74s.45-.28.8-.07l1.82,1.12c.9.56,1.8,1.13,2.7,1.68a.9.9,0,0,0,1.07,0,.84.84,0,0,0,.31-1,1.21,1.21,0,0,0-.43-.54c-1.75-1.18-3.5-2.34-5.25-3.5a1.73,1.73,0,0,0-2,0c-.69.43-1.37.87-2,1.31a1.64,1.64,0,0,1-1.12.27,1.62,1.62,0,0,1-1.42-1.17A1.6,1.6,0,0,1,56.37,17q1.73-1.61,3.47-3.18c.07-.07.16-.13.27-.22l-.49-.2a1.8,1.8,0,0,0-1.52,0c-1.27.48-2.54.93-3.82,1.39a4,4,0,0,1-2,.24l-1.43-.22c-.19,0-.28,0-.35.2l-2.07,5.16c-.15.36-.29.72-.44,1.1l1.82.85a1.69,1.69,0,0,1,3-.18,1.76,1.76,0,0,1,1.83-1.05,1.67,1.67,0,0,1,1.46,1.51,1.7,1.7,0,0,1,1.25.42,1.66,1.66,0,0,1,.57,1.15A1.75,1.75,0,0,1,59.54,26.48Zm23.08-5.61C81.31,16.64,80,12.45,78.71,8.24L73.3,9.88c1.27,4.19,2.54,8.34,3.8,12.51Zm-40.72.62L46.33,10,40.9,8,36.64,19.45Zm27.24-7-.44.11a4.81,4.81,0,0,1-3.09,0c-.83-.28-1.67-.53-2.51-.77a2.45,2.45,0,0,0-2.46.56q-1.8,1.63-3.58,3.29a.72.72,0,0,0-.16,1,.73.73,0,0,0,1.06.13c.62-.4,1.24-.78,1.85-1.19a2.79,2.79,0,0,1,3.36,0c1.77,1.2,3.56,2.37,5.34,3.55a2.49,2.49,0,0,0,2.5.2ZM46.61,11.93l-3.36,8.73L46.66,22l3.53-8.76Zm23.14,1.2,2.45,9,3.54-.94L73,12.26ZM55.13,22.5a.81.81,0,0,0-.52-.69.68.68,0,0,0-.83.3c-.72,1-1.43,2-2.13,3a.71.71,0,1,0,1.16.82l2.11-3A3.1,3.1,0,0,0,55.13,22.5Zm-1.22,3.7a.79.79,0,0,0,.52.69.69.69,0,0,0,.82-.29c.51-.7,1-1.42,1.51-2.13a.71.71,0,0,0-.14-1,.7.7,0,0,0-1,.23c-.5.69-1,1.39-1.49,2.09A3.62,3.62,0,0,0,53.91,26.2Zm2.92,2a2.05,2.05,0,0,0,.54-.33c.46-.6.89-1.22,1.31-1.85a.74.74,0,0,0-.2-1,.73.73,0,0,0-1,.1c-.46.62-.92,1.25-1.34,1.9A.8.8,0,0,0,56.83,28.2ZM51.32,22a1.77,1.77,0,0,0-.46.28,12.79,12.79,0,0,0-.8,1.13.64.64,0,0,0,.19.88.63.63,0,0,0,.87-.11A11.35,11.35,0,0,0,51.93,23,.7.7,0,0,0,51.32,22Z"/><path class="cls-1" d="M76.71,9.73a1.73,1.73,0,0,1,1.62,1.11,1.7,1.7,0,0,1-.47,1.89.35.35,0,0,0-.14.43c.24.87.46,1.74.69,2.61a.46.46,0,0,1-.23.59.47.47,0,0,1-.69-.35c-.22-.84-.44-1.67-.65-2.51a.38.38,0,0,0-.39-.36A1.7,1.7,0,0,1,75,11.37,1.72,1.72,0,0,1,76.71,9.73Zm.78,1.72a.78.78,0,0,0-1.55,0,.8.8,0,0,0,.78.79A.79.79,0,0,0,77.49,11.45Z"/><path class="cls-1" d="M41,16.75A1.76,1.76,0,0,1,41.72,18a1.72,1.72,0,0,1-3.4.5,1.69,1.69,0,0,1,1.33-2,.69.69,0,0,0,.58-.49c.42-1,.86-2,1.29-3a.47.47,0,0,1,.5-.32.42.42,0,0,1,.41.39.75.75,0,0,1-.08.38c-.41,1-.84,2-1.26,2.94Zm-.94.68a.77.77,0,0,0-.78.75.78.78,0,1,0,1.55,0A.78.78,0,0,0,40,17.43Z"/><polygon class="cls-1" points="117.21 93.06 2.79 93.06 2.79 17.52 36.84 17.52 36.84 18.52 3.79 18.52 3.79 92.06 116.21 92.06 116.21 18.52 81.92 18.52 81.92 17.52 117.21 17.52 117.21 93.06"/></svg>