<svg id="Layer_1" data-name="Layer 1" xmlns="http://www.w3.org/2000/svg" viewBox="0 0 120 100"><defs><style>.cls-1{fill:#fc0;}</style></defs><title>Amity M Assects</title><polygon class="cls-1" points="117.21 96.69 2.79 96.69 2.79 21.15 47.97 21.15 47.97 22.15 3.79 22.15 3.79 95.69 116.21 95.69 116.21 22.15 72.29 22.15 72.29 21.15 117.21 21.15 117.21 96.69"/><path class="cls-1" d="M75.36,14,58.94,3.41a.61.61,0,0,0-.66,0L41.86,14a.59.59,0,0,0,0,1l5.67,3.67s0,.07,0,.11v6.94c0,1.34,1.23,2.55,3.46,3.4a22,22,0,0,0,7.63,1.22,22,22,0,0,0,7.63-1.22c2.23-.85,3.45-2.06,3.45-3.4V18.8a.41.41,0,0,0,0-.11l2-1.29V28.51a1.67,1.67,0,0,0-.06,3.1l-1.17,5.11a.62.62,0,0,0,.12.51.6.6,0,0,0,.47.22h2.47a.6.6,0,0,0,.6-.6.88.88,0,0,0,0-.17l-1.16-5.07a1.67,1.67,0,0,0,0-3.1V16.62L75.36,15a.59.59,0,0,0,0-1ZM72.29,30.54a.47.47,0,1,1,0-.94.47.47,0,0,1,0,.94Zm-.49,5.71.49-2.13.48,2.13ZM68.49,25.74c0,1.61-4.06,3.42-9.88,3.42s-9.89-1.81-9.89-3.42V19.46l9.56,6.17a.59.59,0,0,0,.66,0l9.55-6.17Zm-9.88-1.33L43.29,14.52,58.61,4.63l15.32,9.89Z"/><path class="cls-1" d="M56.48,14.52a2.13,2.13,0,1,0,2.13-2.13A2.14,2.14,0,0,0,56.48,14.52Zm3.06,0a.93.93,0,1,1-.93-.93A.93.93,0,0,1,59.54,14.52Z"/></svg>